<svg width="29" height="37" viewBox="0 0 29 37" fill="none" xmlns="http://www.w3.org/2000/svg">
<path d="M25.9524 37C25.7721 37 25.6241 36.9846 25.6208 36.9842C25.2859 36.9181 25.0522 36.8542 25.0294 36.6416C25.011 36.6346 24.9842 36.6255 24.9451 36.6144L24.243 36.5803C24.1878 36.5777 24.1396 36.5509 24.1076 36.5109C24.0965 36.5135 24.0877 36.5153 24.0851 36.516C24.0148 36.5337 23.9401 36.5076 23.896 36.451C23.8121 36.4279 23.6417 36.3989 23.5217 36.3787C23.4816 36.3721 23.4411 36.3648 23.4017 36.3581C23.3693 36.3872 23.327 36.4048 23.2818 36.4055C22.7839 36.4187 22.4206 36.2649 22.106 36.1316C21.8741 36.0335 21.6552 35.941 21.4009 35.9245L20.9538 35.952C20.8798 35.9557 20.8136 35.9179 20.7801 35.854L20.7679 35.8309C20.7473 35.8331 20.7282 35.8353 20.7094 35.8378C20.5526 35.8566 20.4047 35.8742 20.0636 35.7589C19.41 35.5169 18.699 35.3414 18.0116 35.1717C17.2678 34.9882 16.5013 34.7987 15.7803 34.5225C15.7343 34.5358 15.6836 34.5314 15.639 34.5068C15.6081 34.4895 15.5801 34.4741 15.5555 34.4587C15.069 34.1873 14.6266 34.0874 14.1983 33.9905L14.0526 33.9574C13.5024 33.8465 12.999 33.7254 12.458 33.3718C12.4333 33.3556 12.4135 33.3339 12.3991 33.3093C12.2997 33.2656 12.2442 33.2267 12.225 33.168C12.0723 33.1485 11.8681 33.0677 11.5821 32.9495C11.4386 32.8904 11.298 32.832 11.1865 32.7975C11.1218 32.7773 11.075 32.7237 11.0614 32.6605C10.6371 32.5676 10.0902 32.293 9.59785 32.0458L9.44403 31.9687C9.3925 31.943 9.3557 31.8945 9.3454 31.838C9.33473 31.8281 9.23721 31.7282 9.16581 31.6555C9.08927 31.5769 9.0072 31.4932 8.9325 31.4066C8.89018 31.4517 8.82909 31.4715 8.74776 31.466C8.7323 31.4759 8.71574 31.484 8.69771 31.4892C8.64472 31.5039 8.58841 31.4954 8.54315 31.4646C8.50193 31.4367 8.44857 31.4036 8.39116 31.368C8.1549 31.2215 8.00181 31.122 7.93925 31.0133C7.87301 30.9648 7.82296 30.9174 7.77034 30.8675L7.72544 30.8257C7.63381 30.7798 7.558 30.7287 7.48881 30.6663C7.45753 30.6376 7.43803 30.6009 7.43104 30.5616C7.31732 30.4724 7.16202 30.3788 6.96036 30.2778C6.81205 30.1922 6.67221 30.1188 6.54929 30.0542L6.38038 29.9646C6.29611 29.9187 6.26115 29.8162 6.30016 29.7288C6.31598 29.6929 6.34211 29.6646 6.37376 29.6455C6.37192 29.637 6.37044 29.6286 6.36897 29.6198C6.25011 29.5298 6.12314 29.4215 5.98809 29.2768C5.95386 29.2401 5.9373 29.1927 5.93877 29.1457C5.87879 29.1065 5.82764 29.0859 5.80592 29.0833C5.7441 29.0848 5.69883 29.0628 5.66167 29.0198C5.63112 28.9845 5.61935 28.9397 5.62229 28.8942C5.5877 28.7991 5.3702 28.5237 5.20975 28.4088C5.19062 28.4007 5.15934 28.3864 5.13247 28.3739C4.99226 28.3093 4.92492 28.2656 4.71589 28.0269C4.6802 27.9865 4.66548 27.934 4.67173 27.8833C4.65554 27.8723 4.63971 27.8624 4.62352 27.8525C4.53373 27.7974 4.45571 27.7423 4.35267 27.6002C4.34237 27.5866 4.33206 27.572 4.32176 27.5562C4.30225 27.5253 4.29305 27.4912 4.29305 27.457C4.12929 27.2984 4.06673 27.2628 3.89598 27.1651L3.77564 27.0957C3.70719 27.0557 3.67223 26.9767 3.68842 26.8993C3.49632 26.7186 3.20413 26.4226 3.08894 26.1946C2.9859 26.1502 2.87586 26.0327 2.72057 25.8109C2.60685 25.6545 2.50492 25.4602 2.42285 25.3045C2.37943 25.2216 2.34079 25.1481 2.30803 25.096C2.28706 25.0622 2.27822 25.0244 2.28043 24.9876C1.96873 24.5709 1.76706 24.0895 1.57092 23.6213C1.50504 23.4638 1.43917 23.3066 1.36962 23.1532C1.3457 23.1003 1.34791 23.0397 1.37624 22.989L1.42482 22.9005C1.37183 22.8172 1.3008 22.7628 1.21542 22.6975C1.07926 22.5932 0.910347 22.4632 0.815034 22.1907C0.796266 22.1371 0.803994 22.0791 0.832698 22.0332C0.750265 21.8037 0.689545 21.6157 0.633976 21.4413C0.548967 21.1949 0.497446 20.9573 0.437829 20.632C0.428629 20.5824 0.440406 20.5314 0.470214 20.4906C0.473158 20.4866 0.476102 20.4829 0.479046 20.4793C0.456965 20.4198 0.435989 20.3584 0.415013 20.2971C0.376004 20.1837 0.337731 20.0698 0.290626 19.9703C0.271122 19.9292 0.267443 19.8822 0.281059 19.8385C0.338836 19.6483 0.269651 19.2683 0.196786 18.8662L0.138273 18.506C0.0860164 18.0202 0.0275035 17.4778 0.146001 17.0225L0.122817 17.0144C0.0459039 16.9873 -0.00414566 16.9127 0.000270409 16.8316C0.00395046 16.7658 0.00615896 16.6964 0.00836699 16.6259C0.0124151 16.4993 0.0168309 16.3693 0.0278711 16.2503C0.0672477 15.994 0.142689 15.8192 0.253091 15.719C0.257875 15.7146 0.263027 15.7105 0.268547 15.7065C0.268915 15.6918 0.268915 15.6778 0.269283 15.665C0.271123 15.5574 0.272963 15.4362 0.299827 15.3308C0.299827 15.3206 0.29946 15.3107 0.299092 15.3011C0.21813 15.2659 0.171025 15.1825 0.192738 15.0951C0.223282 14.9717 0.26413 14.8425 0.30645 14.7085C0.345091 14.5858 0.385573 14.4591 0.419429 14.3291C0.445926 14.2392 0.468741 14.1533 0.492294 14.0673C0.543078 13.879 0.595336 13.6844 0.667097 13.4975C0.865452 12.9393 1.10797 12.4829 1.33429 12.2409C1.50578 11.8697 1.72143 11.4386 2.01804 11.0266C2.34778 10.5753 2.73124 10.2302 3.19051 9.97093C3.21995 9.95404 3.25712 9.94853 3.28582 9.94706C3.47314 9.85526 3.71271 9.77338 3.8923 9.72307C4.03324 9.69443 4.26656 9.64707 4.42149 9.71206C4.50539 9.68158 4.58599 9.6511 4.66511 9.621C4.88665 9.53728 5.09604 9.45796 5.3242 9.39554C5.6716 9.30631 6.05874 9.23434 6.55629 9.31145C6.60192 9.31843 6.64166 9.34193 6.66963 9.37534C6.77378 9.37314 6.87314 9.3669 6.93864 9.36249L7.02402 9.35772C7.14178 9.37424 7.19772 9.41867 7.22532 9.4598C7.27574 9.46531 7.32542 9.46274 7.38135 9.46053C7.44355 9.45796 7.50684 9.45539 7.57493 9.4609C7.64485 9.46677 7.70446 9.51157 7.72986 9.57473C7.8616 9.61512 8.00586 9.65441 8.15601 9.6948C8.36319 9.75062 8.58363 9.81047 8.80848 9.88354C9.39066 10.0646 9.86355 10.2819 10.2121 10.5283C10.2492 10.5548 10.2735 10.5922 10.2838 10.6337C10.5352 10.7255 10.8049 10.9021 10.9657 11.0163C11.1552 11.1485 11.3356 11.2947 11.4828 11.414C11.5634 11.4794 11.6333 11.5363 11.6889 11.5774C11.7312 11.6086 11.7562 11.6545 11.7621 11.7033C11.8942 11.8315 11.9542 11.9402 12.0134 12.0467C12.0201 12.0584 12.0263 12.0698 12.0329 12.0816C12.101 12.0647 12.1768 12.0867 12.2232 12.144C12.3159 12.2593 12.3917 12.3346 12.4396 12.3753C12.5158 12.3595 12.5916 12.3918 12.6328 12.4568C12.7281 12.6066 12.7443 12.6823 12.741 12.7693C12.741 12.7711 12.7601 12.8156 12.8849 12.9687C12.9298 13.0238 12.9386 13.1001 12.9077 13.1644C12.8992 13.182 12.8871 13.1989 12.8727 13.2136C12.9316 13.3157 12.9909 13.4211 13.049 13.5272C13.0527 13.5323 13.056 13.5378 13.0589 13.5434L13.0807 13.5845C13.0924 13.5999 13.1127 13.6252 13.1458 13.6638C13.1576 13.6623 13.169 13.6601 13.1789 13.6616C13.1992 13.6399 13.2242 13.6234 13.2536 13.6131C13.3239 13.5878 13.4019 13.6091 13.4512 13.6642C13.495 13.7134 13.5329 13.7688 13.5719 13.8334C13.5878 13.7453 13.6246 13.6788 13.6831 13.6344C13.6849 13.6329 13.6871 13.6315 13.6893 13.6296C13.6798 13.5569 13.6676 13.4806 13.6558 13.4049C13.6441 13.3296 13.6327 13.2555 13.6235 13.1868C13.6198 13.1655 13.6161 13.1442 13.6121 13.1233C13.5833 13.1079 13.5591 13.0847 13.5414 13.055C13.5064 12.9959 13.4671 12.8875 13.4369 12.5332C13.4266 12.3536 13.4332 12.1682 13.438 12.0368L13.4398 11.9754C13.4417 11.9174 13.4707 11.866 13.5142 11.8337L13.5086 11.7808C13.5013 11.7147 13.5311 11.6497 13.5852 11.6115L13.643 11.5708C13.6308 11.4221 13.6628 11.3306 13.7004 11.2444C13.7107 11.2205 13.7195 11.2007 13.7239 11.1775C13.6713 11.1397 13.6419 11.0762 13.6485 11.0097C13.6827 10.6829 13.6846 10.5111 13.6772 10.3392L13.6739 10.2566C13.6669 10.0998 13.6588 9.92209 13.7114 9.63091C13.7206 9.5795 13.7515 9.53507 13.7953 9.5079C13.799 9.47742 13.8023 9.44511 13.8056 9.41206C13.8259 9.21268 13.8487 8.98649 14.0069 8.82602C14.0573 8.77535 14.1313 8.75883 14.1968 8.78086C14.1979 8.77315 14.1987 8.7669 14.1994 8.76103C14.1114 8.69604 14.0842 8.59726 14.1159 8.46507C14.128 8.41403 14.1615 8.3707 14.2079 8.3461C14.2285 8.33509 14.2564 8.32003 14.2888 8.31012C14.3083 8.2297 14.3286 8.14782 14.3492 8.06557C14.4327 7.73069 14.5192 7.38442 14.5291 7.1586C14.5317 7.09875 14.5633 7.04404 14.6138 7.01209C14.6167 7.00989 14.6204 7.00805 14.6237 7.00622C14.6896 6.85199 14.737 6.69447 14.7834 6.54135C14.8647 6.27256 14.9413 6.01847 15.1065 5.84589C15.129 5.82275 15.1562 5.80623 15.1856 5.79742C15.2327 5.71957 15.2743 5.62851 15.3152 5.53891C15.342 5.48053 15.3682 5.42325 15.3958 5.36927C15.4881 5.18494 15.6107 4.94002 15.8227 4.92166C15.8569 4.90293 15.8896 4.89816 15.9165 4.89816C15.9272 4.86144 15.9305 4.83023 15.9334 4.79755C15.9478 4.65031 15.9754 4.51885 16.184 4.28899C16.2006 4.27063 16.2201 4.25631 16.2411 4.24639C16.3824 4.03966 16.5509 3.81457 16.7151 3.59536C16.7953 3.48814 16.8744 3.38276 16.948 3.28178C16.9657 3.25791 16.9889 3.23808 17.0157 3.22523C17.1843 3.14298 17.3723 2.94837 17.5718 2.74237C17.6417 2.67003 17.7135 2.59623 17.7878 2.52279C18.0892 2.21875 18.37 2.00395 18.6247 1.88277C18.6493 1.83063 18.6883 1.78436 18.7203 1.74728C18.727 1.73957 18.7336 1.73186 18.7395 1.72488C18.7627 1.66466 18.8168 1.62023 18.8815 1.60995C18.8893 1.60848 18.8973 1.60775 18.9051 1.60775C18.9283 1.58351 18.9364 1.56295 18.947 1.53761C18.9584 1.51007 18.9724 1.47555 18.9982 1.4381C19.0239 1.40065 19.0633 1.37384 19.1078 1.36319C19.1653 1.34961 19.3011 1.23614 19.3824 1.16858C19.4777 1.0889 19.5594 1.0206 19.6385 0.980212C19.6886 0.917422 19.7909 0.850592 20.0257 0.743004C20.0996 0.709223 20.1843 0.728318 20.2369 0.784865C20.2505 0.773115 20.2638 0.761365 20.277 0.749247C20.4411 0.603839 20.6104 0.45329 20.9983 0.337624C21.0119 0.333585 21.0259 0.331015 21.0402 0.33028L21.1341 0.324038C21.1959 0.319631 21.257 0.315225 21.3188 0.313389C21.406 0.227099 21.5462 0.173489 21.6791 0.128691L21.802 0.0974802C21.8425 0.0879332 21.8786 0.0798549 21.9051 0.0721438C21.9459 0.0368933 21.9996 0.0211039 22.0556 0.0302837L22.1167 0.0390964C22.2072 0.0512138 22.2999 0.063698 22.3713 0.111066C22.4464 0.0996829 22.5307 0.0912379 22.6238 0.0860972C22.6576 0.0321199 22.7195 -0.00496656 22.7864 0.00054133C22.9855 0.00788519 23.1677 0.00678339 23.3388 0.006049C23.8551 0.00237707 24.2997 0.000540901 24.7748 0.238482C24.8274 0.264553 24.862 0.313022 24.873 0.367C24.8796 0.367367 24.8859 0.368468 24.8925 0.36957L24.9492 0.380953C24.9967 0.316694 25.0802 0.290256 25.156 0.31596C25.4821 0.425016 25.6157 0.540682 25.7448 0.652309C25.839 0.733825 25.9281 0.810935 26.1128 0.898327C26.1334 0.907874 26.1518 0.921461 26.1677 0.937985C26.2475 1.02207 26.2781 1.10616 26.2593 1.18841C26.4735 1.32794 26.6045 1.51705 26.7211 1.68522C26.7922 1.78767 26.8558 1.8791 26.9247 1.93895C26.9302 1.94336 26.9357 1.94813 26.9412 1.95254C26.9556 1.96392 26.9703 1.97347 26.985 1.98155C27.0159 1.99844 27.0409 2.02377 27.0579 2.05425C27.0597 2.05792 27.0619 2.06159 27.0634 2.06563C27.1098 2.07261 27.1532 2.09721 27.1834 2.13724C27.2161 2.1813 27.2459 2.20737 27.2838 2.24115C27.3593 2.30761 27.4513 2.38876 27.569 2.60247C27.6408 2.57383 27.7254 2.59109 27.7781 2.65167C27.8384 2.72071 27.9389 2.91569 27.9032 3.06697C27.9856 3.19475 28.0335 3.2256 28.0765 3.25314C28.2016 3.33649 28.2995 3.42645 28.3831 3.77932C28.3908 3.81127 28.3893 3.84358 28.3805 3.87332C28.3919 3.9038 28.4033 3.93244 28.4147 3.95888C28.4313 3.99156 28.4471 4.02755 28.4633 4.065C28.5027 4.15606 28.4622 4.26218 28.372 4.30368C28.3669 4.30588 28.3617 4.30808 28.3566 4.31028C28.457 4.28899 28.5406 4.34407 28.595 4.41493C28.6131 4.43843 28.6248 4.46561 28.63 4.49388C28.6631 4.51738 28.6885 4.55227 28.6999 4.59376L28.7139 4.64333C28.743 4.74761 28.7717 4.85189 28.821 4.97344C28.8504 5.04541 28.8302 5.12509 28.7772 5.17576C28.793 5.40709 28.8118 5.6689 28.899 5.93548C28.9288 6.02581 28.8839 6.12348 28.7978 6.16094C28.8081 6.24539 28.7985 6.30157 28.7599 6.35408C28.747 6.37134 28.7279 6.38749 28.7058 6.40035C28.7257 6.53768 28.7452 6.56228 28.7595 6.58101C28.8243 6.66509 28.8593 6.7422 28.8681 7.01136C28.9141 7.04661 28.9428 7.10279 28.9402 7.16448C28.9329 7.35909 28.9365 7.52065 28.9398 7.67267C28.9432 7.82579 28.9461 7.97414 28.9384 8.13827C28.9792 8.20657 28.9903 8.3002 28.9987 8.37291C29.0061 8.43533 28.9811 8.49482 28.9358 8.53374C28.9281 8.58478 28.92 8.6505 28.9137 8.70081C28.9027 8.79187 28.8916 8.88514 28.8769 8.96372C28.906 9.01145 28.9119 9.07021 28.8916 9.12345C28.8685 9.1855 28.8398 9.22737 28.8092 9.25527C28.8144 9.27804 28.8158 9.30154 28.8118 9.32541C28.7754 9.56041 28.8044 9.66616 28.8386 9.78844C28.8784 9.93311 28.924 10.0969 28.8548 10.413C28.8519 10.4648 28.8158 10.5529 28.7621 10.6873C28.7408 10.7406 28.7165 10.8001 28.6925 10.8636C28.7168 10.8911 28.7385 10.9297 28.7529 10.984C28.7643 11.0273 28.7595 11.0732 28.7393 11.1136C28.5969 11.3953 28.6064 11.7133 28.6171 12.0812C28.6274 12.4337 28.6392 12.8332 28.5085 13.2591C28.4949 13.3036 28.4651 13.3407 28.4261 13.3634C28.4302 13.3777 28.4324 13.3928 28.4331 13.4079C28.4331 13.4134 28.4397 13.8551 28.29 14.0431C28.3017 14.3145 28.2668 14.4547 28.2182 14.6526C28.2013 14.7217 28.1818 14.7995 28.1619 14.8961C28.1505 14.9497 28.1166 14.9934 28.0721 15.0184C28.0699 15.0595 28.0695 15.0995 28.0691 15.1458C28.0684 15.2023 28.0677 15.2659 28.064 15.3463C28.0603 15.4208 28.0121 15.4847 27.9433 15.51C27.9363 15.5269 27.9293 15.5468 27.9253 15.5662C27.9455 15.7733 27.9208 16.0373 27.8951 16.316C27.88 16.4791 27.8645 16.645 27.8586 16.7993C27.8572 16.8418 27.841 16.8822 27.813 16.9138C27.785 17.1932 27.7276 17.4753 27.6713 17.7492C27.6047 18.0752 27.5363 18.4105 27.5201 18.7351C27.6228 18.8177 27.6077 18.9954 27.5793 19.3266C27.5679 19.4585 27.555 19.6083 27.5606 19.67C27.565 19.7177 27.5503 19.7654 27.5197 19.8025C27.5094 19.815 27.4987 19.826 27.4873 19.837C27.5186 19.923 27.512 20.0247 27.5079 20.0886C27.5061 20.1205 27.5024 20.1741 27.5061 20.1914C27.5193 20.2277 27.519 20.2608 27.5087 20.2982C27.4855 20.3809 27.4494 20.4675 27.3615 20.5149C27.3567 20.5384 27.3512 20.5747 27.3449 20.6313C27.3666 20.6445 27.3854 20.6621 27.4005 20.6838C27.4469 20.7506 27.4432 20.8398 27.392 20.9034C27.3618 20.9438 27.293 21.1435 27.2511 21.3759C27.2444 21.4123 27.2275 21.4446 27.2032 21.4696C27.2032 21.4707 27.2032 21.4714 27.2029 21.4725C27.2614 21.5155 27.2901 21.5904 27.2724 21.6631C27.1962 21.9785 27.1966 22.2616 27.197 22.5355C27.1973 22.6967 27.1973 22.8521 27.183 23.0052C27.1775 23.0617 27.1462 23.1124 27.0998 23.1425C27.1042 23.1675 27.1098 23.1873 27.1171 23.2031C27.1304 23.2321 27.1359 23.2637 27.1329 23.2949L27.1064 23.6055C27.0995 23.686 27.0413 23.7509 26.9655 23.7686C26.9622 23.8997 26.964 24.0348 26.9872 24.0774C27.0671 24.1376 27.0759 24.2419 27.017 24.323C27.0104 24.3318 27.0034 24.3399 26.9957 24.3469C26.9622 24.5349 26.9294 24.7765 26.9 24.9946C26.8569 25.3119 26.8352 25.4734 26.8058 25.5627C26.8087 25.7305 26.7981 25.9071 26.7889 26.0643C26.7804 26.2031 26.7694 26.387 26.7793 26.4678C26.8154 26.4983 26.8393 26.5423 26.8433 26.5916C26.8551 26.727 26.8253 26.8761 26.7966 27.0208C26.7675 27.1673 26.7274 27.3682 26.7749 27.428C26.8117 27.4746 26.8235 27.536 26.8069 27.5929C26.7752 27.7008 26.7447 27.8048 26.6704 27.8499C26.6711 27.8562 26.6718 27.8624 26.6729 27.869C26.6843 27.959 26.6972 28.0596 26.6829 28.1532C26.6906 28.162 26.698 28.1723 26.7057 28.1833C26.7351 28.2278 26.7432 28.2832 26.7289 28.3346C26.7175 28.3743 26.6932 28.4088 26.6601 28.4327C26.6398 28.4973 26.645 28.6809 26.6479 28.805C26.6516 28.9482 26.656 29.1046 26.6409 29.2497C26.691 29.3022 26.713 29.3811 26.7314 29.4454C26.7469 29.5005 26.7355 29.5588 26.7027 29.6036L26.709 29.6073C26.7524 29.633 26.7833 29.6756 26.7944 29.7244C26.8054 29.7736 26.7958 29.8251 26.7679 29.8669L26.6214 30.0858L26.6273 30.222C26.6372 30.2271 26.6468 30.2326 26.6564 30.2392C26.7443 30.3017 26.776 30.4001 26.8176 30.7397C26.8238 30.7908 26.8087 30.8392 26.7789 30.8767C26.7822 30.9332 26.7981 31.0092 26.8157 31.0919C26.8536 31.2714 26.9004 31.4947 26.886 31.7822C26.8842 31.8182 26.872 31.8512 26.8529 31.8788L26.8569 31.8942C26.8724 31.9544 26.8562 32.0154 26.8187 32.0594C26.8201 32.0822 26.8257 32.1005 26.8341 32.1273C26.861 32.2144 26.8831 32.3076 26.8573 32.4887C26.8525 32.5228 26.8382 32.5533 26.8179 32.5786C26.8227 32.6198 26.8275 32.6601 26.8323 32.6998L26.8632 32.7762C26.8831 32.8246 26.8805 32.8775 26.8595 32.9223C26.9957 33.9703 27.1863 34.9926 27.4262 35.963C27.4443 36.0358 27.4163 36.1121 27.3552 36.1558L26.5997 36.6993C26.6096 36.7345 26.6107 36.7712 26.6001 36.8043C26.5452 36.967 26.2148 37 25.9524 37ZM3.35427 26.1395C3.36642 26.1304 3.37598 26.1197 3.38371 26.1083C3.37525 26.119 3.36531 26.1293 3.35427 26.1395ZM3.08379 25.902C3.07827 25.9089 3.07422 25.9159 3.07127 25.9222L3.07201 25.9225C3.07569 25.9152 3.07974 25.9086 3.08379 25.902ZM28.5137 8.79187C28.5159 8.79334 28.5185 8.79518 28.5211 8.79702C28.5244 8.79371 28.5277 8.79077 28.531 8.7882C28.5314 8.78306 28.5325 8.77792 28.5332 8.77278C28.5255 8.77902 28.5188 8.78526 28.5137 8.79187Z" fill="#D80600"/>
</svg>
