<svg width="29" height="95" viewBox="0 0 29 95" fill="none" xmlns="http://www.w3.org/2000/svg">
<mask id="path-1-outside-1_97_28655" maskUnits="userSpaceOnUse" x="-1.1322" y="-0.204575" width="29.6825" height="69.5783" fill="black">
<rect fill="white" x="-1.1322" y="-0.204575" width="29.6825" height="69.5783"/>
<path d="M22.148 50.1961C22.0615 50.363 21.9612 50.5565 21.9135 50.6484C22.0084 50.9156 22.1386 51.1001 22.1265 51.2784C22.0648 52.1813 21.9415 53.0819 21.8908 53.9849C21.8666 54.4176 21.9832 54.8534 21.9866 55.2888C21.9942 56.2786 22.0038 57.284 22.2459 58.2333C22.4871 59.179 22.236 60.0254 22.0204 60.9118C21.9057 61.3834 21.7888 61.8735 21.8117 62.348C21.8567 63.2806 21.2691 63.9707 20.7891 64.6978C20.443 65.2222 19.8567 65.5086 19.2111 65.6553C19.019 65.699 18.7944 65.6686 18.5964 65.6281C18.3727 65.5824 18.1631 65.4846 17.9455 65.4141C17.8233 65.3745 17.6826 65.3656 17.5754 65.3063C17.032 65.0057 16.4967 64.6932 15.9718 64.3925C15.585 64.6303 15.2254 64.8515 14.8659 65.0725C14.8253 65.0254 14.7848 64.9783 14.7442 64.9312C14.882 64.8194 15.0196 64.7077 15.194 64.5662C14.9316 64.1581 14.3619 64.1641 14.0414 63.8332C13.7909 64.1388 14.086 64.199 14.1922 64.3391C14.2308 64.3901 14.1982 64.5464 14.1438 64.5786C14.0811 64.6156 13.9461 64.5888 13.8656 64.5506C13.8081 64.5234 13.7634 64.4344 13.756 64.3685C13.704 63.9025 13.4839 63.4974 13.2323 63.1021C13.206 63.0607 13.157 62.9996 13.1725 62.9724C13.4768 62.4393 13.0311 62.0901 12.7966 61.7018C12.5922 61.3633 12.4798 61.0529 12.7236 60.6842C12.7977 60.5721 12.8275 60.3919 12.7855 60.2698C12.5077 59.4625 12.4995 59.4649 13.0096 58.8281C12.7865 58.3671 11.9755 58.2035 12.1165 57.4609C12.1753 57.4031 12.2991 57.2817 12.4141 57.1688C12.3877 57.1023 12.3846 57.0457 12.3518 57.0194C12.0871 56.8072 11.3689 56.8644 11.8028 56.2428C11.7386 56.2209 11.6638 56.2111 11.6125 56.1745C11.5332 56.1182 11.3949 56.0175 11.4111 55.9805C11.7095 55.3001 11.074 54.682 11.3213 53.9551C11.5749 53.8798 11.8743 53.791 12.1658 53.7045C12.1489 52.9655 11.8086 52.6709 10.5813 52.958C10.5204 52.3776 10.331 51.7879 10.4357 51.2404C10.5472 50.6576 10.3068 50.1997 10.087 49.7505C9.86944 49.3059 9.62854 48.8663 9.54954 48.3935C9.49905 48.0914 9.56904 47.7174 9.73419 47.4492C10.0236 46.9794 10.0305 46.5596 9.85295 46.0673C9.63028 45.4496 9.50218 44.8032 9.32334 44.1716C9.27136 43.9881 9.22095 43.7914 9.10892 43.6373C8.51369 42.8189 8.52694 42.2813 9.17616 41.5746C9.06715 41.39 8.94279 41.2196 8.86205 41.0334C8.73508 40.7403 8.79539 40.3533 8.33246 40.2397C8.28136 40.2272 8.24649 40.1201 8.22892 40.0514C8.10322 39.5611 8.21059 39.0318 7.91516 38.5618C7.86348 38.4796 8.05648 38.2696 8.0866 38.2127C7.859 37.8032 7.62859 37.4638 7.47889 37.0967C7.3451 36.7685 7.43233 36.382 7.15576 36.0748C7.08997 36.0018 7.13552 35.7677 7.22059 35.676C7.52488 35.348 7.4557 34.9914 7.23872 34.7274C6.79762 34.191 7.11116 33.544 6.87096 32.9828C6.8287 32.884 7.06527 32.6849 7.1913 32.5061C7.16138 32.4832 7.03967 32.4336 6.99662 32.3502C6.62054 31.6204 6.25473 30.8861 5.89848 30.148C5.86405 30.0766 5.89819 29.9659 5.92941 29.8819C6.02217 29.6323 6.19398 29.3916 5.95663 29.1319C5.91997 29.0918 5.92722 28.9516 5.95474 28.9403C6.50975 28.7117 6.06334 28.3368 6.0869 28.0553C6.11826 27.6805 5.89375 27.2955 5.81769 26.9083C5.79303 26.7826 5.9169 26.6369 5.92509 26.4986C5.94606 26.1443 6.02695 25.7659 5.92497 25.4396C5.76746 24.9359 5.45373 24.4758 5.25323 23.9811C5.14659 23.718 5.10332 23.4225 5.09503 23.1393C5.08404 22.7613 5.14272 22.3811 5.15203 22.0017C5.15377 21.9313 5.08266 21.8293 5.01258 21.7945C4.6041 21.5919 4.58319 21.2181 4.49445 20.8711C4.45 20.6973 4.40371 20.5426 4.67714 20.4675C4.72874 20.4533 4.77887 20.2376 4.73437 20.161C4.62577 19.9742 4.63473 19.8166 4.63352 19.6061C4.63106 19.1785 4.56551 18.7671 4.61087 18.3157C4.6495 17.9319 4.24669 17.4988 3.98468 17.1187C3.78479 16.8287 3.70847 16.5971 4.07573 16.3775C3.69713 16.0656 3.48502 15.7573 3.69742 15.2776C3.94717 14.7134 3.79834 14.1221 3.72725 13.5433C3.71553 13.4477 3.65688 13.3531 3.66453 13.2604C3.72037 12.5817 3.33771 12.0444 3.01738 11.4825C2.93595 11.3398 2.92591 11.1623 2.8884 10.9997C2.82225 10.7131 2.7602 10.4257 2.68499 10.0869C2.76704 10.0455 2.92044 9.96813 3.09934 9.87789C2.39715 9.27345 2.41633 8.48246 2.30799 7.72967C2.65141 7.48597 2.4626 6.88716 3.08825 6.80988C3.2293 6.79243 3.46227 6.57397 3.45124 6.46785C3.40504 6.02521 3.82169 5.90138 4.08039 5.81493C4.90641 5.53889 5.52099 5.02133 6.16376 4.52051C7.1496 3.75243 8.29206 3.25184 9.58093 3.20215C10.1321 3.18091 10.5428 2.89965 11.0448 2.83427C11.2529 2.80714 11.4596 2.70882 11.6617 2.71771C11.9022 2.72831 12.1404 2.87405 12.3734 2.85944C12.5864 2.84606 12.7827 2.66966 13.0009 2.61278C13.6457 2.44473 14.2733 2.46478 14.8543 2.79942C14.9432 2.85061 15.0438 2.90248 15.1457 2.91586C15.8131 3.00344 16.2533 3.35069 16.5337 3.87734C17.6503 4.07084 17.9111 4.28334 18.021 5.08366C18.6952 4.9836 18.7516 5.01235 19.0944 5.51458C19.2282 5.71052 19.4047 5.88197 19.5472 6.07343C19.6773 6.24828 19.8048 6.42788 19.9042 6.61814C20.3064 7.3878 20.5681 8.18103 20.3406 9.05415C20.3066 9.18454 20.6293 10.0441 20.6884 10.2291C20.8113 10.6138 21.0285 11.0232 20.9712 11.3959C20.8556 12.1484 21.0442 12.785 21.5459 13.3885C21.2685 13.5223 21.0352 13.6348 20.8018 13.7474C20.8145 13.7983 20.8271 13.8491 20.8398 13.8999C21.1647 13.8772 21.4895 13.8545 21.7812 13.8341C21.7399 14.2303 21.702 14.5485 21.6746 14.8672C21.635 15.3289 21.5819 15.7665 21.0594 16.0442C20.7491 16.2092 20.6665 16.5004 20.8609 16.7916C21.4185 17.6267 21.2589 18.5495 21.2381 19.4559C21.236 19.5515 21.1587 19.6884 21.2047 19.7355C21.5262 20.0653 21.2447 20.3023 21.0069 20.5738C21.4942 20.9203 21.8529 21.3141 21.9452 21.8708C22.0528 22.5203 21.3521 22.6881 21.0463 23.1416C21.4686 23.3569 21.6628 23.597 21.4418 24.1143C21.249 24.5655 21.3381 25.1135 21.3154 25.619C21.3114 25.7078 21.3477 25.8123 21.4037 25.8854C22.1307 26.8353 22.0826 27.8775 21.8045 28.944C21.6685 29.4656 21.3342 29.9837 21.8021 30.496C21.5817 31.0302 22.056 31.7803 21.1372 32.1067C20.9018 32.1904 20.9019 32.4364 21.0913 32.5952C21.2251 32.7074 21.4099 32.77 21.7527 32.9492C21.4683 33.1183 21.341 33.1941 21.217 33.2679C21.2394 33.3192 21.2442 33.3844 21.28 33.4038C21.7608 33.665 21.8535 34.1601 22.023 34.5667C22.1223 34.805 21.925 35.1665 21.9882 35.4816C21.9948 35.5147 21.8581 35.6164 21.8328 35.6052C21.361 35.3962 21.4864 35.8091 21.2968 35.9555C21.5571 36.127 21.7668 36.2653 21.8923 36.348C22.1967 37.8954 21.6847 39.3226 21.5275 40.8017C22.0146 41.1633 22.1493 41.6331 21.9798 42.2003C21.815 42.7519 21.8432 43.2946 22.0112 43.8539C22.1168 44.2052 22.0466 44.6038 22.0412 44.9813C22.0339 45.4833 21.5932 45.8903 21.6698 46.4412C21.6972 46.6382 21.5983 46.8548 21.7207 47.0912C21.8191 47.2813 21.7514 47.5378 21.7943 47.7585C21.8659 48.1269 21.967 48.4903 22.0728 48.9266C21.6636 48.8507 21.2437 48.7391 21.2313 49.3315C21.3605 49.3537 21.5009 49.3779 21.6638 49.4059C21.8082 49.642 21.9675 49.9019 22.148 50.1961ZM16.797 52.5908C16.8402 52.2308 17.1112 51.9497 16.6639 51.6924C16.4015 52.003 16.2213 52.2623 16.797 52.5908ZM16.1678 62.144C15.9352 62.1774 15.745 62.1661 15.7238 62.2141C15.5929 62.5094 15.1456 62.6992 15.3081 63.1542C15.5943 62.8179 15.8425 62.5263 16.1678 62.144ZM15.119 62.1347C14.7772 62.2843 14.5615 62.3787 14.2128 62.5313C14.5544 62.6172 14.7634 62.6698 15.0037 62.7302C15.045 62.5168 15.0716 62.3791 15.119 62.1347ZM12.9761 52.1643C12.8015 52.051 12.6772 51.9081 12.5624 51.9155C12.4694 51.9214 12.3878 52.1083 12.3013 52.215C12.4224 52.2824 12.5374 52.3877 12.6668 52.4027C12.7418 52.4115 12.8397 52.2751 12.9761 52.1643ZM10.008 28.5576C9.99971 28.7608 9.99337 28.9141 9.98412 29.1395C10.3748 28.8178 10.3748 28.8178 10.008 28.5576ZM16.2013 58.3604C16.1851 58.4543 16.169 58.5482 16.1529 58.6422C16.3285 58.6557 16.5041 58.6738 16.68 58.6737C16.6944 58.6737 16.7321 58.4919 16.7226 58.4891C16.5521 58.4375 16.3761 58.4005 16.2013 58.3604ZM10.6758 7.82684C10.5035 7.63628 10.4095 7.45838 10.152 7.58839C10.1051 7.61206 10.0664 7.72469 10.0877 7.77247C10.1928 8.00923 10.3804 7.9759 10.6758 7.82684ZM16.7634 54.1754C16.7179 54.4576 16.7888 54.6105 17.1393 54.594C17.2351 54.276 17.1446 54.1377 16.7634 54.1754ZM17.0289 52.739C17.0779 52.8034 17.127 52.8679 17.176 52.9323C17.2953 52.8389 17.4146 52.7455 17.5339 52.652C17.5022 52.6097 17.4706 52.5674 17.439 52.525C17.3023 52.5963 17.1656 52.6677 17.0289 52.739ZM7.54676 33.8524C7.48812 33.8869 7.42949 33.9214 7.37085 33.9559C7.37771 34.1653 7.40149 34.3612 7.87619 34.3058C7.73731 34.1147 7.64201 33.9836 7.54676 33.8524ZM17.0229 10.4615C17.1921 10.2314 17.2794 10.1511 17.2636 10.1271C17.2176 10.0576 17.1304 10.0106 17.0593 9.95477C17.0016 10.0172 16.9002 10.0782 16.8969 10.1422C16.8924 10.2299 16.9623 10.3198 17.0229 10.4615ZM12.9222 55.1724C13.078 55.5832 13.078 55.5833 13.3456 55.3344C13.1966 55.2774 13.0594 55.2248 12.9222 55.1724ZM7.10246 25.4703C7.01191 25.3937 6.92248 25.3066 6.91394 25.3126C6.82568 25.3756 6.75055 25.4536 6.67175 25.5274C6.73018 25.5654 6.80052 25.644 6.84443 25.6329C6.92925 25.6115 6.99914 25.5396 7.10246 25.4703ZM20.5979 31.3211C20.6651 31.3539 20.7323 31.3866 20.7994 31.4193C20.822 31.3282 20.8766 31.2304 20.857 31.1478C20.8409 31.0798 20.7447 31.0165 20.667 30.9804C20.645 30.9702 20.5245 31.0593 20.5185 31.1088C20.5103 31.1766 20.5683 31.25 20.5979 31.3211ZM13.4598 62.2357C13.8444 62.193 13.9567 62.0419 13.7562 61.7108C13.6309 61.9327 13.5454 62.0842 13.4598 62.2357ZM15.5725 63.9107C15.5432 63.8624 15.514 63.8141 15.4847 63.7658C15.3568 63.8346 15.2288 63.9033 15.1009 63.972C15.1261 64.0138 15.1514 64.0558 15.1766 64.0977C15.3085 64.0354 15.4405 63.9731 15.5725 63.9107ZM16.3774 64.3944C16.4598 64.3205 16.5279 64.2594 16.5961 64.1982C16.5259 64.1448 16.4433 64.0391 16.3884 64.0504C16.3095 64.0665 16.2508 64.168 16.1836 64.233C16.2373 64.2777 16.291 64.3224 16.3774 64.3944ZM19.6341 64.6451C19.6647 64.6048 19.6953 64.5645 19.7258 64.5242C19.5954 64.455 19.4649 64.3858 19.3344 64.3166C19.3136 64.3485 19.2928 64.3805 19.272 64.4124C19.3928 64.49 19.5134 64.5675 19.6341 64.6451ZM21.9471 57.0953C21.9195 57.0554 21.892 57.0155 21.8645 56.9756C21.7059 57.0656 21.5474 57.1557 21.3887 57.2458C21.5378 57.3123 21.6271 57.2798 21.7103 57.2373C21.7924 57.1952 21.8684 57.143 21.9471 57.0953Z"/>
</mask>
<path d="M22.148 50.1961C22.0615 50.363 21.9612 50.5565 21.9135 50.6484C22.0084 50.9156 22.1386 51.1001 22.1265 51.2784C22.0648 52.1813 21.9415 53.0819 21.8908 53.9849C21.8666 54.4176 21.9832 54.8534 21.9866 55.2888C21.9942 56.2786 22.0038 57.284 22.2459 58.2333C22.4871 59.179 22.236 60.0254 22.0204 60.9118C21.9057 61.3834 21.7888 61.8735 21.8117 62.348C21.8567 63.2806 21.2691 63.9707 20.7891 64.6978C20.443 65.2222 19.8567 65.5086 19.2111 65.6553C19.019 65.699 18.7944 65.6686 18.5964 65.6281C18.3727 65.5824 18.1631 65.4846 17.9455 65.4141C17.8233 65.3745 17.6826 65.3656 17.5754 65.3063C17.032 65.0057 16.4967 64.6932 15.9718 64.3925C15.585 64.6303 15.2254 64.8515 14.8659 65.0725C14.8253 65.0254 14.7848 64.9783 14.7442 64.9312C14.882 64.8194 15.0196 64.7077 15.194 64.5662C14.9316 64.1581 14.3619 64.1641 14.0414 63.8332C13.7909 64.1388 14.086 64.199 14.1922 64.3391C14.2308 64.3901 14.1982 64.5464 14.1438 64.5786C14.0811 64.6156 13.9461 64.5888 13.8656 64.5506C13.8081 64.5234 13.7634 64.4344 13.756 64.3685C13.704 63.9025 13.4839 63.4974 13.2323 63.1021C13.206 63.0607 13.157 62.9996 13.1725 62.9724C13.4768 62.4393 13.0311 62.0901 12.7966 61.7018C12.5922 61.3633 12.4798 61.0529 12.7236 60.6842C12.7977 60.5721 12.8275 60.3919 12.7855 60.2698C12.5077 59.4625 12.4995 59.4649 13.0096 58.8281C12.7865 58.3671 11.9755 58.2035 12.1165 57.4609C12.1753 57.4031 12.2991 57.2817 12.4141 57.1688C12.3877 57.1023 12.3846 57.0457 12.3518 57.0194C12.0871 56.8072 11.3689 56.8644 11.8028 56.2428C11.7386 56.2209 11.6638 56.2111 11.6125 56.1745C11.5332 56.1182 11.3949 56.0175 11.4111 55.9805C11.7095 55.3001 11.074 54.682 11.3213 53.9551C11.5749 53.8798 11.8743 53.791 12.1658 53.7045C12.1489 52.9655 11.8086 52.6709 10.5813 52.958C10.5204 52.3776 10.331 51.7879 10.4357 51.2404C10.5472 50.6576 10.3068 50.1997 10.087 49.7505C9.86944 49.3059 9.62854 48.8663 9.54954 48.3935C9.49905 48.0914 9.56904 47.7174 9.73419 47.4492C10.0236 46.9794 10.0305 46.5596 9.85295 46.0673C9.63028 45.4496 9.50218 44.8032 9.32334 44.1716C9.27136 43.9881 9.22095 43.7914 9.10892 43.6373C8.51369 42.8189 8.52694 42.2813 9.17616 41.5746C9.06715 41.39 8.94279 41.2196 8.86205 41.0334C8.73508 40.7403 8.79539 40.3533 8.33246 40.2397C8.28136 40.2272 8.24649 40.1201 8.22892 40.0514C8.10322 39.5611 8.21059 39.0318 7.91516 38.5618C7.86348 38.4796 8.05648 38.2696 8.0866 38.2127C7.859 37.8032 7.62859 37.4638 7.47889 37.0967C7.3451 36.7685 7.43233 36.382 7.15576 36.0748C7.08997 36.0018 7.13552 35.7677 7.22059 35.676C7.52488 35.348 7.4557 34.9914 7.23872 34.7274C6.79762 34.191 7.11116 33.544 6.87096 32.9828C6.8287 32.884 7.06527 32.6849 7.1913 32.5061C7.16138 32.4832 7.03967 32.4336 6.99662 32.3502C6.62054 31.6204 6.25473 30.8861 5.89848 30.148C5.86405 30.0766 5.89819 29.9659 5.92941 29.8819C6.02217 29.6323 6.19398 29.3916 5.95663 29.1319C5.91997 29.0918 5.92722 28.9516 5.95474 28.9403C6.50975 28.7117 6.06334 28.3368 6.0869 28.0553C6.11826 27.6805 5.89375 27.2955 5.81769 26.9083C5.79303 26.7826 5.9169 26.6369 5.92509 26.4986C5.94606 26.1443 6.02695 25.7659 5.92497 25.4396C5.76746 24.9359 5.45373 24.4758 5.25323 23.9811C5.14659 23.718 5.10332 23.4225 5.09503 23.1393C5.08404 22.7613 5.14272 22.3811 5.15203 22.0017C5.15377 21.9313 5.08266 21.8293 5.01258 21.7945C4.6041 21.5919 4.58319 21.2181 4.49445 20.8711C4.45 20.6973 4.40371 20.5426 4.67714 20.4675C4.72874 20.4533 4.77887 20.2376 4.73437 20.161C4.62577 19.9742 4.63473 19.8166 4.63352 19.6061C4.63106 19.1785 4.56551 18.7671 4.61087 18.3157C4.6495 17.9319 4.24669 17.4988 3.98468 17.1187C3.78479 16.8287 3.70847 16.5971 4.07573 16.3775C3.69713 16.0656 3.48502 15.7573 3.69742 15.2776C3.94717 14.7134 3.79834 14.1221 3.72725 13.5433C3.71553 13.4477 3.65688 13.3531 3.66453 13.2604C3.72037 12.5817 3.33771 12.0444 3.01738 11.4825C2.93595 11.3398 2.92591 11.1623 2.8884 10.9997C2.82225 10.7131 2.7602 10.4257 2.68499 10.0869C2.76704 10.0455 2.92044 9.96813 3.09934 9.87789C2.39715 9.27345 2.41633 8.48246 2.30799 7.72967C2.65141 7.48597 2.4626 6.88716 3.08825 6.80988C3.2293 6.79243 3.46227 6.57397 3.45124 6.46785C3.40504 6.02521 3.82169 5.90138 4.08039 5.81493C4.90641 5.53889 5.52099 5.02133 6.16376 4.52051C7.1496 3.75243 8.29206 3.25184 9.58093 3.20215C10.1321 3.18091 10.5428 2.89965 11.0448 2.83427C11.2529 2.80714 11.4596 2.70882 11.6617 2.71771C11.9022 2.72831 12.1404 2.87405 12.3734 2.85944C12.5864 2.84606 12.7827 2.66966 13.0009 2.61278C13.6457 2.44473 14.2733 2.46478 14.8543 2.79942C14.9432 2.85061 15.0438 2.90248 15.1457 2.91586C15.8131 3.00344 16.2533 3.35069 16.5337 3.87734C17.6503 4.07084 17.9111 4.28334 18.021 5.08366C18.6952 4.9836 18.7516 5.01235 19.0944 5.51458C19.2282 5.71052 19.4047 5.88197 19.5472 6.07343C19.6773 6.24828 19.8048 6.42788 19.9042 6.61814C20.3064 7.3878 20.5681 8.18103 20.3406 9.05415C20.3066 9.18454 20.6293 10.0441 20.6884 10.2291C20.8113 10.6138 21.0285 11.0232 20.9712 11.3959C20.8556 12.1484 21.0442 12.785 21.5459 13.3885C21.2685 13.5223 21.0352 13.6348 20.8018 13.7474C20.8145 13.7983 20.8271 13.8491 20.8398 13.8999C21.1647 13.8772 21.4895 13.8545 21.7812 13.8341C21.7399 14.2303 21.702 14.5485 21.6746 14.8672C21.635 15.3289 21.5819 15.7665 21.0594 16.0442C20.7491 16.2092 20.6665 16.5004 20.8609 16.7916C21.4185 17.6267 21.2589 18.5495 21.2381 19.4559C21.236 19.5515 21.1587 19.6884 21.2047 19.7355C21.5262 20.0653 21.2447 20.3023 21.0069 20.5738C21.4942 20.9203 21.8529 21.3141 21.9452 21.8708C22.0528 22.5203 21.3521 22.6881 21.0463 23.1416C21.4686 23.3569 21.6628 23.597 21.4418 24.1143C21.249 24.5655 21.3381 25.1135 21.3154 25.619C21.3114 25.7078 21.3477 25.8123 21.4037 25.8854C22.1307 26.8353 22.0826 27.8775 21.8045 28.944C21.6685 29.4656 21.3342 29.9837 21.8021 30.496C21.5817 31.0302 22.056 31.7803 21.1372 32.1067C20.9018 32.1904 20.9019 32.4364 21.0913 32.5952C21.2251 32.7074 21.4099 32.77 21.7527 32.9492C21.4683 33.1183 21.341 33.1941 21.217 33.2679C21.2394 33.3192 21.2442 33.3844 21.28 33.4038C21.7608 33.665 21.8535 34.1601 22.023 34.5667C22.1223 34.805 21.925 35.1665 21.9882 35.4816C21.9948 35.5147 21.8581 35.6164 21.8328 35.6052C21.361 35.3962 21.4864 35.8091 21.2968 35.9555C21.5571 36.127 21.7668 36.2653 21.8923 36.348C22.1967 37.8954 21.6847 39.3226 21.5275 40.8017C22.0146 41.1633 22.1493 41.6331 21.9798 42.2003C21.815 42.7519 21.8432 43.2946 22.0112 43.8539C22.1168 44.2052 22.0466 44.6038 22.0412 44.9813C22.0339 45.4833 21.5932 45.8903 21.6698 46.4412C21.6972 46.6382 21.5983 46.8548 21.7207 47.0912C21.8191 47.2813 21.7514 47.5378 21.7943 47.7585C21.8659 48.1269 21.967 48.4903 22.0728 48.9266C21.6636 48.8507 21.2437 48.7391 21.2313 49.3315C21.3605 49.3537 21.5009 49.3779 21.6638 49.4059C21.8082 49.642 21.9675 49.9019 22.148 50.1961ZM16.797 52.5908C16.8402 52.2308 17.1112 51.9497 16.6639 51.6924C16.4015 52.003 16.2213 52.2623 16.797 52.5908ZM16.1678 62.144C15.9352 62.1774 15.745 62.1661 15.7238 62.2141C15.5929 62.5094 15.1456 62.6992 15.3081 63.1542C15.5943 62.8179 15.8425 62.5263 16.1678 62.144ZM15.119 62.1347C14.7772 62.2843 14.5615 62.3787 14.2128 62.5313C14.5544 62.6172 14.7634 62.6698 15.0037 62.7302C15.045 62.5168 15.0716 62.3791 15.119 62.1347ZM12.9761 52.1643C12.8015 52.051 12.6772 51.9081 12.5624 51.9155C12.4694 51.9214 12.3878 52.1083 12.3013 52.215C12.4224 52.2824 12.5374 52.3877 12.6668 52.4027C12.7418 52.4115 12.8397 52.2751 12.9761 52.1643ZM10.008 28.5576C9.99971 28.7608 9.99337 28.9141 9.98412 29.1395C10.3748 28.8178 10.3748 28.8178 10.008 28.5576ZM16.2013 58.3604C16.1851 58.4543 16.169 58.5482 16.1529 58.6422C16.3285 58.6557 16.5041 58.6738 16.68 58.6737C16.6944 58.6737 16.7321 58.4919 16.7226 58.4891C16.5521 58.4375 16.3761 58.4005 16.2013 58.3604ZM10.6758 7.82684C10.5035 7.63628 10.4095 7.45838 10.152 7.58839C10.1051 7.61206 10.0664 7.72469 10.0877 7.77247C10.1928 8.00923 10.3804 7.9759 10.6758 7.82684ZM16.7634 54.1754C16.7179 54.4576 16.7888 54.6105 17.1393 54.594C17.2351 54.276 17.1446 54.1377 16.7634 54.1754ZM17.0289 52.739C17.0779 52.8034 17.127 52.8679 17.176 52.9323C17.2953 52.8389 17.4146 52.7455 17.5339 52.652C17.5022 52.6097 17.4706 52.5674 17.439 52.525C17.3023 52.5963 17.1656 52.6677 17.0289 52.739ZM7.54676 33.8524C7.48812 33.8869 7.42949 33.9214 7.37085 33.9559C7.37771 34.1653 7.40149 34.3612 7.87619 34.3058C7.73731 34.1147 7.64201 33.9836 7.54676 33.8524ZM17.0229 10.4615C17.1921 10.2314 17.2794 10.1511 17.2636 10.1271C17.2176 10.0576 17.1304 10.0106 17.0593 9.95477C17.0016 10.0172 16.9002 10.0782 16.8969 10.1422C16.8924 10.2299 16.9623 10.3198 17.0229 10.4615ZM12.9222 55.1724C13.078 55.5832 13.078 55.5833 13.3456 55.3344C13.1966 55.2774 13.0594 55.2248 12.9222 55.1724ZM7.10246 25.4703C7.01191 25.3937 6.92248 25.3066 6.91394 25.3126C6.82568 25.3756 6.75055 25.4536 6.67175 25.5274C6.73018 25.5654 6.80052 25.644 6.84443 25.6329C6.92925 25.6115 6.99914 25.5396 7.10246 25.4703ZM20.5979 31.3211C20.6651 31.3539 20.7323 31.3866 20.7994 31.4193C20.822 31.3282 20.8766 31.2304 20.857 31.1478C20.8409 31.0798 20.7447 31.0165 20.667 30.9804C20.645 30.9702 20.5245 31.0593 20.5185 31.1088C20.5103 31.1766 20.5683 31.25 20.5979 31.3211ZM13.4598 62.2357C13.8444 62.193 13.9567 62.0419 13.7562 61.7108C13.6309 61.9327 13.5454 62.0842 13.4598 62.2357ZM15.5725 63.9107C15.5432 63.8624 15.514 63.8141 15.4847 63.7658C15.3568 63.8346 15.2288 63.9033 15.1009 63.972C15.1261 64.0138 15.1514 64.0558 15.1766 64.0977C15.3085 64.0354 15.4405 63.9731 15.5725 63.9107ZM16.3774 64.3944C16.4598 64.3205 16.5279 64.2594 16.5961 64.1982C16.5259 64.1448 16.4433 64.0391 16.3884 64.0504C16.3095 64.0665 16.2508 64.168 16.1836 64.233C16.2373 64.2777 16.291 64.3224 16.3774 64.3944ZM19.6341 64.6451C19.6647 64.6048 19.6953 64.5645 19.7258 64.5242C19.5954 64.455 19.4649 64.3858 19.3344 64.3166C19.3136 64.3485 19.2928 64.3805 19.272 64.4124C19.3928 64.49 19.5134 64.5675 19.6341 64.6451ZM21.9471 57.0953C21.9195 57.0554 21.892 57.0155 21.8645 56.9756C21.7059 57.0656 21.5474 57.1557 21.3887 57.2458C21.5378 57.3123 21.6271 57.2798 21.7103 57.2373C21.7924 57.1952 21.8684 57.143 21.9471 57.0953Z" fill="#789367"/>
<path d="M22.148 50.1961C22.0615 50.363 21.9612 50.5565 21.9135 50.6484C22.0084 50.9156 22.1386 51.1001 22.1265 51.2784C22.0648 52.1813 21.9415 53.0819 21.8908 53.9849C21.8666 54.4176 21.9832 54.8534 21.9866 55.2888C21.9942 56.2786 22.0038 57.284 22.2459 58.2333C22.4871 59.179 22.236 60.0254 22.0204 60.9118C21.9057 61.3834 21.7888 61.8735 21.8117 62.348C21.8567 63.2806 21.2691 63.9707 20.7891 64.6978C20.443 65.2222 19.8567 65.5086 19.2111 65.6553C19.019 65.699 18.7944 65.6686 18.5964 65.6281C18.3727 65.5824 18.1631 65.4846 17.9455 65.4141C17.8233 65.3745 17.6826 65.3656 17.5754 65.3063C17.032 65.0057 16.4967 64.6932 15.9718 64.3925C15.585 64.6303 15.2254 64.8515 14.8659 65.0725C14.8253 65.0254 14.7848 64.9783 14.7442 64.9312C14.882 64.8194 15.0196 64.7077 15.194 64.5662C14.9316 64.1581 14.3619 64.1641 14.0414 63.8332C13.7909 64.1388 14.086 64.199 14.1922 64.3391C14.2308 64.3901 14.1982 64.5464 14.1438 64.5786C14.0811 64.6156 13.9461 64.5888 13.8656 64.5506C13.8081 64.5234 13.7634 64.4344 13.756 64.3685C13.704 63.9025 13.4839 63.4974 13.2323 63.1021C13.206 63.0607 13.157 62.9996 13.1725 62.9724C13.4768 62.4393 13.0311 62.0901 12.7966 61.7018C12.5922 61.3633 12.4798 61.0529 12.7236 60.6842C12.7977 60.5721 12.8275 60.3919 12.7855 60.2698C12.5077 59.4625 12.4995 59.4649 13.0096 58.8281C12.7865 58.3671 11.9755 58.2035 12.1165 57.4609C12.1753 57.4031 12.2991 57.2817 12.4141 57.1688C12.3877 57.1023 12.3846 57.0457 12.3518 57.0194C12.0871 56.8072 11.3689 56.8644 11.8028 56.2428C11.7386 56.2209 11.6638 56.2111 11.6125 56.1745C11.5332 56.1182 11.3949 56.0175 11.4111 55.9805C11.7095 55.3001 11.074 54.682 11.3213 53.9551C11.5749 53.8798 11.8743 53.791 12.1658 53.7045C12.1489 52.9655 11.8086 52.6709 10.5813 52.958C10.5204 52.3776 10.331 51.7879 10.4357 51.2404C10.5472 50.6576 10.3068 50.1997 10.087 49.7505C9.86944 49.3059 9.62854 48.8663 9.54954 48.3935C9.49905 48.0914 9.56904 47.7174 9.73419 47.4492C10.0236 46.9794 10.0305 46.5596 9.85295 46.0673C9.63028 45.4496 9.50218 44.8032 9.32334 44.1716C9.27136 43.9881 9.22095 43.7914 9.10892 43.6373C8.51369 42.8189 8.52694 42.2813 9.17616 41.5746C9.06715 41.39 8.94279 41.2196 8.86205 41.0334C8.73508 40.7403 8.79539 40.3533 8.33246 40.2397C8.28136 40.2272 8.24649 40.1201 8.22892 40.0514C8.10322 39.5611 8.21059 39.0318 7.91516 38.5618C7.86348 38.4796 8.05648 38.2696 8.0866 38.2127C7.859 37.8032 7.62859 37.4638 7.47889 37.0967C7.3451 36.7685 7.43233 36.382 7.15576 36.0748C7.08997 36.0018 7.13552 35.7677 7.22059 35.676C7.52488 35.348 7.4557 34.9914 7.23872 34.7274C6.79762 34.191 7.11116 33.544 6.87096 32.9828C6.8287 32.884 7.06527 32.6849 7.1913 32.5061C7.16138 32.4832 7.03967 32.4336 6.99662 32.3502C6.62054 31.6204 6.25473 30.8861 5.89848 30.148C5.86405 30.0766 5.89819 29.9659 5.92941 29.8819C6.02217 29.6323 6.19398 29.3916 5.95663 29.1319C5.91997 29.0918 5.92722 28.9516 5.95474 28.9403C6.50975 28.7117 6.06334 28.3368 6.0869 28.0553C6.11826 27.6805 5.89375 27.2955 5.81769 26.9083C5.79303 26.7826 5.9169 26.6369 5.92509 26.4986C5.94606 26.1443 6.02695 25.7659 5.92497 25.4396C5.76746 24.9359 5.45373 24.4758 5.25323 23.9811C5.14659 23.718 5.10332 23.4225 5.09503 23.1393C5.08404 22.7613 5.14272 22.3811 5.15203 22.0017C5.15377 21.9313 5.08266 21.8293 5.01258 21.7945C4.6041 21.5919 4.58319 21.2181 4.49445 20.8711C4.45 20.6973 4.40371 20.5426 4.67714 20.4675C4.72874 20.4533 4.77887 20.2376 4.73437 20.161C4.62577 19.9742 4.63473 19.8166 4.63352 19.6061C4.63106 19.1785 4.56551 18.7671 4.61087 18.3157C4.6495 17.9319 4.24669 17.4988 3.98468 17.1187C3.78479 16.8287 3.70847 16.5971 4.07573 16.3775C3.69713 16.0656 3.48502 15.7573 3.69742 15.2776C3.94717 14.7134 3.79834 14.1221 3.72725 13.5433C3.71553 13.4477 3.65688 13.3531 3.66453 13.2604C3.72037 12.5817 3.33771 12.0444 3.01738 11.4825C2.93595 11.3398 2.92591 11.1623 2.8884 10.9997C2.82225 10.7131 2.7602 10.4257 2.68499 10.0869C2.76704 10.0455 2.92044 9.96813 3.09934 9.87789C2.39715 9.27345 2.41633 8.48246 2.30799 7.72967C2.65141 7.48597 2.4626 6.88716 3.08825 6.80988C3.2293 6.79243 3.46227 6.57397 3.45124 6.46785C3.40504 6.02521 3.82169 5.90138 4.08039 5.81493C4.90641 5.53889 5.52099 5.02133 6.16376 4.52051C7.1496 3.75243 8.29206 3.25184 9.58093 3.20215C10.1321 3.18091 10.5428 2.89965 11.0448 2.83427C11.2529 2.80714 11.4596 2.70882 11.6617 2.71771C11.9022 2.72831 12.1404 2.87405 12.3734 2.85944C12.5864 2.84606 12.7827 2.66966 13.0009 2.61278C13.6457 2.44473 14.2733 2.46478 14.8543 2.79942C14.9432 2.85061 15.0438 2.90248 15.1457 2.91586C15.8131 3.00344 16.2533 3.35069 16.5337 3.87734C17.6503 4.07084 17.9111 4.28334 18.021 5.08366C18.6952 4.9836 18.7516 5.01235 19.0944 5.51458C19.2282 5.71052 19.4047 5.88197 19.5472 6.07343C19.6773 6.24828 19.8048 6.42788 19.9042 6.61814C20.3064 7.3878 20.5681 8.18103 20.3406 9.05415C20.3066 9.18454 20.6293 10.0441 20.6884 10.2291C20.8113 10.6138 21.0285 11.0232 20.9712 11.3959C20.8556 12.1484 21.0442 12.785 21.5459 13.3885C21.2685 13.5223 21.0352 13.6348 20.8018 13.7474C20.8145 13.7983 20.8271 13.8491 20.8398 13.8999C21.1647 13.8772 21.4895 13.8545 21.7812 13.8341C21.7399 14.2303 21.702 14.5485 21.6746 14.8672C21.635 15.3289 21.5819 15.7665 21.0594 16.0442C20.7491 16.2092 20.6665 16.5004 20.8609 16.7916C21.4185 17.6267 21.2589 18.5495 21.2381 19.4559C21.236 19.5515 21.1587 19.6884 21.2047 19.7355C21.5262 20.0653 21.2447 20.3023 21.0069 20.5738C21.4942 20.9203 21.8529 21.3141 21.9452 21.8708C22.0528 22.5203 21.3521 22.6881 21.0463 23.1416C21.4686 23.3569 21.6628 23.597 21.4418 24.1143C21.249 24.5655 21.3381 25.1135 21.3154 25.619C21.3114 25.7078 21.3477 25.8123 21.4037 25.8854C22.1307 26.8353 22.0826 27.8775 21.8045 28.944C21.6685 29.4656 21.3342 29.9837 21.8021 30.496C21.5817 31.0302 22.056 31.7803 21.1372 32.1067C20.9018 32.1904 20.9019 32.4364 21.0913 32.5952C21.2251 32.7074 21.4099 32.77 21.7527 32.9492C21.4683 33.1183 21.341 33.1941 21.217 33.2679C21.2394 33.3192 21.2442 33.3844 21.28 33.4038C21.7608 33.665 21.8535 34.1601 22.023 34.5667C22.1223 34.805 21.925 35.1665 21.9882 35.4816C21.9948 35.5147 21.8581 35.6164 21.8328 35.6052C21.361 35.3962 21.4864 35.8091 21.2968 35.9555C21.5571 36.127 21.7668 36.2653 21.8923 36.348C22.1967 37.8954 21.6847 39.3226 21.5275 40.8017C22.0146 41.1633 22.1493 41.6331 21.9798 42.2003C21.815 42.7519 21.8432 43.2946 22.0112 43.8539C22.1168 44.2052 22.0466 44.6038 22.0412 44.9813C22.0339 45.4833 21.5932 45.8903 21.6698 46.4412C21.6972 46.6382 21.5983 46.8548 21.7207 47.0912C21.8191 47.2813 21.7514 47.5378 21.7943 47.7585C21.8659 48.1269 21.967 48.4903 22.0728 48.9266C21.6636 48.8507 21.2437 48.7391 21.2313 49.3315C21.3605 49.3537 21.5009 49.3779 21.6638 49.4059C21.8082 49.642 21.9675 49.9019 22.148 50.1961ZM16.797 52.5908C16.8402 52.2308 17.1112 51.9497 16.6639 51.6924C16.4015 52.003 16.2213 52.2623 16.797 52.5908ZM16.1678 62.144C15.9352 62.1774 15.745 62.1661 15.7238 62.2141C15.5929 62.5094 15.1456 62.6992 15.3081 63.1542C15.5943 62.8179 15.8425 62.5263 16.1678 62.144ZM15.119 62.1347C14.7772 62.2843 14.5615 62.3787 14.2128 62.5313C14.5544 62.6172 14.7634 62.6698 15.0037 62.7302C15.045 62.5168 15.0716 62.3791 15.119 62.1347ZM12.9761 52.1643C12.8015 52.051 12.6772 51.9081 12.5624 51.9155C12.4694 51.9214 12.3878 52.1083 12.3013 52.215C12.4224 52.2824 12.5374 52.3877 12.6668 52.4027C12.7418 52.4115 12.8397 52.2751 12.9761 52.1643ZM10.008 28.5576C9.99971 28.7608 9.99337 28.9141 9.98412 29.1395C10.3748 28.8178 10.3748 28.8178 10.008 28.5576ZM16.2013 58.3604C16.1851 58.4543 16.169 58.5482 16.1529 58.6422C16.3285 58.6557 16.5041 58.6738 16.68 58.6737C16.6944 58.6737 16.7321 58.4919 16.7226 58.4891C16.5521 58.4375 16.3761 58.4005 16.2013 58.3604ZM10.6758 7.82684C10.5035 7.63628 10.4095 7.45838 10.152 7.58839C10.1051 7.61206 10.0664 7.72469 10.0877 7.77247C10.1928 8.00923 10.3804 7.9759 10.6758 7.82684ZM16.7634 54.1754C16.7179 54.4576 16.7888 54.6105 17.1393 54.594C17.2351 54.276 17.1446 54.1377 16.7634 54.1754ZM17.0289 52.739C17.0779 52.8034 17.127 52.8679 17.176 52.9323C17.2953 52.8389 17.4146 52.7455 17.5339 52.652C17.5022 52.6097 17.4706 52.5674 17.439 52.525C17.3023 52.5963 17.1656 52.6677 17.0289 52.739ZM7.54676 33.8524C7.48812 33.8869 7.42949 33.9214 7.37085 33.9559C7.37771 34.1653 7.40149 34.3612 7.87619 34.3058C7.73731 34.1147 7.64201 33.9836 7.54676 33.8524ZM17.0229 10.4615C17.1921 10.2314 17.2794 10.1511 17.2636 10.1271C17.2176 10.0576 17.1304 10.0106 17.0593 9.95477C17.0016 10.0172 16.9002 10.0782 16.8969 10.1422C16.8924 10.2299 16.9623 10.3198 17.0229 10.4615ZM12.9222 55.1724C13.078 55.5832 13.078 55.5833 13.3456 55.3344C13.1966 55.2774 13.0594 55.2248 12.9222 55.1724ZM7.10246 25.4703C7.01191 25.3937 6.92248 25.3066 6.91394 25.3126C6.82568 25.3756 6.75055 25.4536 6.67175 25.5274C6.73018 25.5654 6.80052 25.644 6.84443 25.6329C6.92925 25.6115 6.99914 25.5396 7.10246 25.4703ZM20.5979 31.3211C20.6651 31.3539 20.7323 31.3866 20.7994 31.4193C20.822 31.3282 20.8766 31.2304 20.857 31.1478C20.8409 31.0798 20.7447 31.0165 20.667 30.9804C20.645 30.9702 20.5245 31.0593 20.5185 31.1088C20.5103 31.1766 20.5683 31.25 20.5979 31.3211ZM13.4598 62.2357C13.8444 62.193 13.9567 62.0419 13.7562 61.7108C13.6309 61.9327 13.5454 62.0842 13.4598 62.2357ZM15.5725 63.9107C15.5432 63.8624 15.514 63.8141 15.4847 63.7658C15.3568 63.8346 15.2288 63.9033 15.1009 63.972C15.1261 64.0138 15.1514 64.0558 15.1766 64.0977C15.3085 64.0354 15.4405 63.9731 15.5725 63.9107ZM16.3774 64.3944C16.4598 64.3205 16.5279 64.2594 16.5961 64.1982C16.5259 64.1448 16.4433 64.0391 16.3884 64.0504C16.3095 64.0665 16.2508 64.168 16.1836 64.233C16.2373 64.2777 16.291 64.3224 16.3774 64.3944ZM19.6341 64.6451C19.6647 64.6048 19.6953 64.5645 19.7258 64.5242C19.5954 64.455 19.4649 64.3858 19.3344 64.3166C19.3136 64.3485 19.2928 64.3805 19.272 64.4124C19.3928 64.49 19.5134 64.5675 19.6341 64.6451ZM21.9471 57.0953C21.9195 57.0554 21.892 57.0155 21.8645 56.9756C21.7059 57.0656 21.5474 57.1557 21.3887 57.2458C21.5378 57.3123 21.6271 57.2798 21.7103 57.2373C21.7924 57.1952 21.8684 57.143 21.9471 57.0953Z" stroke="white" stroke-width="4" mask="url(#path-1-outside-1_97_28655)"/>
<path d="M18.7079 75.7498C20.1106 75.0454 21.4239 75.5735 22.3178 76.2199C22.6591 76.4667 22.8705 76.7892 22.996 76.9869C23.1527 77.2337 23.2013 77.323 23.2771 77.4078C23.5602 77.7248 23.7168 77.8765 23.8599 77.9456C25.2469 78.6154 25.7996 79.766 26.1484 80.7831C26.519 81.1153 26.6711 81.5122 26.7542 81.7882C26.7823 81.8816 26.8464 82.1273 26.8529 82.1504C26.8783 82.2399 26.8942 82.2755 26.9018 82.2899C27.0771 82.6223 27.4625 83.4195 27.1633 84.2785C27.1674 84.3113 27.1712 84.3466 27.1726 84.3835C27.2046 85.243 27.2318 86.1038 27.2617 87.0019L27.2898 87.8516L26.5376 88.0001C26.5301 88.0227 26.5242 88.0459 26.5159 88.0682C26.389 88.4087 26.1754 88.6748 26.0225 88.8516C25.9547 88.93 25.9102 89.0009 25.9105 89.2383C25.9117 90.105 25.5386 90.9393 25.18 91.5449C25.0664 91.7367 24.9271 91.8817 24.8171 91.9833C24.7085 92.0836 24.5926 92.174 24.5136 92.2356C24.3186 92.3876 24.2664 92.437 24.2423 92.4709L23.77 93.1363L23.0235 92.8077C23.011 92.8022 22.9986 92.7963 22.9861 92.7908L22.9565 92.8995L22.2532 92.9497C21.8342 92.9797 21.4531 93.0751 20.879 93.177C20.3577 93.2695 19.7209 93.355 19.0483 93.2453C18.8386 93.2111 18.6205 93.1896 18.3542 93.1617C18.1012 93.1351 17.808 93.103 17.5131 93.0462C16.9193 92.9319 16.2416 92.7031 15.658 92.1373C15.4582 92.1144 15.2546 92.0649 15.0569 91.9688C14.5978 91.7457 14.3319 91.3579 14.1472 91.0271C13.5646 90.6833 13.1831 90.2195 12.8973 89.8399C12.5353 89.3589 12.3605 89.0796 12.081 88.8475L11.8253 88.6354L11.747 88.3129C11.6663 87.9786 11.5185 87.7165 11.2908 87.1935C11.089 86.7298 10.8593 86.1145 10.9022 85.3744C10.9391 84.7407 11.0662 83.924 11.252 83.1385C11.435 82.3653 11.6944 81.5386 12.0301 80.9236C12.1013 80.7929 12.1162 80.6929 12.2053 80.3778C12.2033 80.3258 12.2026 80.2521 12.2124 80.1717C12.2295 80.0333 12.2874 79.7747 12.5064 79.5462L12.7287 79.2947C12.9384 79.0391 13.1261 78.7613 13.4161 78.3871C13.7656 77.9362 14.218 77.4219 14.884 77.05C15.6614 76.616 16.611 76.2883 17.3253 75.9836L17.3947 75.9542L17.437 75.7604L17.9014 75.7377L18.3101 75.5633L18.3653 75.7229C18.4464 75.725 18.5169 75.7292 18.5727 75.7348C18.6114 75.7387 18.663 75.7443 18.6842 75.7466C18.6932 75.7476 18.7011 75.7492 18.7079 75.7498ZM26.9835 84.6611L26.9835 84.662C27.0022 84.631 27.0179 84.5999 27.0319 84.5696C27.0158 84.5996 27.0015 84.631 26.9835 84.6611Z" fill="#789367" stroke="white" stroke-width="2"/>
</svg>
