<svg width="162" height="83" viewBox="0 0 162 83" fill="none" xmlns="http://www.w3.org/2000/svg">
<path fill-rule="evenodd" clip-rule="evenodd" d="M92.6464 51.4807C93.4107 53.119 98.0952 54.3258 99.6933 55.7593C102.644 58.4252 102.864 64.8833 104.239 69.1071C105.19 72.0143 106.806 75.3568 108.635 77.2803C117.539 86.6238 135.151 81.1092 139.605 72.1972C142 67.4103 140.607 61.1496 142.911 55.5033C152.898 57.1452 160.647 51.3856 161.221 43.5414C162.132 31.309 151.161 27.6923 142.717 26.1161C146.528 17.1054 137.912 5.58607 132.686 2.89822C125.072 -1.02567 112.646 -0.184581 108.218 5.70309C100.805 15.5659 106.375 32.3293 93.5204 34.5052C94.9905 38.7618 90.8106 47.5092 92.6464 51.4807ZM105.365 49.0195C106.759 44.6531 111.765 43.2014 117.239 41.4022C112.858 39.1312 108.108 36.0593 107.238 30.6398C105.994 22.9236 111.033 16.1766 114.617 11.7444C122.472 7.85706 133.696 11.8797 136.266 18.6999C137.912 23.0516 135.261 29.5281 138.033 31.4443C139.865 32.7059 142.911 31.799 145.328 32.6035C148.605 33.697 154.101 38.3742 154.288 43.0514C154.602 50.8809 145.003 51.9743 137.272 52.2084C134.997 55.7373 137.352 63.9398 134.288 67.8637C131.011 72.0509 123.175 73.1041 117.795 71.4658C112.354 69.8202 101.913 59.8331 105.365 49.0195Z" fill="#ADC69D"/>
<path fill-rule="evenodd" clip-rule="evenodd" d="M23.0986 27.2829C22.082 24.5072 22.2977 21.5305 22.4806 18.3051C16.922 18.0527 2.91234 16.2937 0.747427 19.9982C0.659661 23.4248 1.07657 26.2991 2.042 28.6067C9.80934 29.3307 17.7156 29.2613 23.0986 27.2829Z" fill="#ADC69D"/>
<path fill-rule="evenodd" clip-rule="evenodd" d="M89.0296 57.8183C91.381 55.7594 90.1157 54.2637 89.5196 51.2285C89.2051 49.5975 89.6915 47.9409 89.7134 46.032C89.7829 40.5721 88.8906 34.3663 89.6074 30.8191C90.0645 28.5225 91.5785 24.7742 88.3823 24.6315C84.0159 24.4377 85.1459 37.3687 85.1276 43.0589C85.1094 48.9429 83.3211 57.4453 89.0296 57.8183Z" fill="#ADC69D"/>
<path fill-rule="evenodd" clip-rule="evenodd" d="M71.9554 53.4774C73.1841 54.6696 75.2027 55.0207 77.5322 55.0426C78.7134 46.0027 78.6 36.3813 78.3952 26.3174C77.2579 24.8692 74.6652 25.5567 72.855 26.1381C71.2094 33.6129 72.2662 45.2054 71.9554 53.4774Z" fill="#ADC69D"/>
<path fill-rule="evenodd" clip-rule="evenodd" d="M82.641 52.4716C83.6357 44.0606 83.5004 37.4049 83.643 28.2333C82.8348 28.2553 82.034 28.2809 81.2258 28.3029C80.0958 35.017 78.7939 45.2052 80.9149 52.5228C81.2367 53.5248 82.023 52.2814 82.641 52.4716Z" fill="#ADC69D"/>
<path fill-rule="evenodd" clip-rule="evenodd" d="M12.3621 49.7325C11.2394 47.3629 9.11106 44.163 7.00466 44.0131C8.80022 45.8488 9.47674 50.1787 12.3621 49.7325Z" fill="#ADC69D"/>
<path fill-rule="evenodd" clip-rule="evenodd" d="M20.3048 49.4913C19.2406 46.7047 17.0099 45.1542 14.9328 43.4317C16.5565 45.6369 16.6954 49.4072 20.3048 49.4913Z" fill="#ADC69D"/>
<path fill-rule="evenodd" clip-rule="evenodd" d="M13.7442 49.6889C15.2435 49.6341 15.346 50.1644 16.1505 49.2757C14.8303 46.9901 13.3236 44.9093 10.804 43.9C11.1917 46.2697 14.2745 47.5094 13.7442 49.6889Z" fill="#ADC69D"/>
<path fill-rule="evenodd" clip-rule="evenodd" d="M8.2077 49.5095C7.53117 47.2495 5.26388 44.7993 3.56706 44.8067C5.12857 46.3535 5.50522 49.1694 8.2077 49.5095Z" fill="#ADC69D"/>
<path fill-rule="evenodd" clip-rule="evenodd" d="M33.1078 49.8021C32.0656 47.4617 30.5041 45.6771 28.4526 44.4081C29.1401 46.4194 29.8971 48.3393 31.0344 49.8679C31.1624 49.0926 32.8628 49.5388 33.1078 49.8021Z" fill="#ADC69D"/>
<path fill-rule="evenodd" clip-rule="evenodd" d="M37.2474 49.3305C35.5213 47.8385 34.2011 45.9113 32.2666 44.6387C33.5283 46.394 34.4681 50.3837 37.2474 49.3305Z" fill="#ADC69D"/>
<path fill-rule="evenodd" clip-rule="evenodd" d="M41.76 49.8901C40.7251 47.5496 38.6663 46.2843 36.4355 45.2128C37.6606 47.3485 38.1287 50.296 41.76 49.8901Z" fill="#ADC69D"/>
<path fill-rule="evenodd" clip-rule="evenodd" d="M50.4014 49.6267C48.8106 47.7397 46.9492 46.1599 44.7258 44.9604C46.2325 46.6902 47.2601 50.8152 50.4014 49.6267Z" fill="#ADC69D"/>
<path fill-rule="evenodd" clip-rule="evenodd" d="M3.01494 49.3156C3.50862 49.1145 4.81053 49.6704 4.73007 48.928C3.69882 48.4819 3.28555 47.3701 2.25064 46.924C2.23967 47.9991 3.366 47.8784 3.01494 49.3156Z" fill="#ADC69D"/>
<path fill-rule="evenodd" clip-rule="evenodd" d="M55.258 50.1787C53.8208 48.4855 52.1861 45.1211 49.5934 45.8452C51.3048 47.4798 51.612 50.5919 55.258 50.1787Z" fill="#ADC69D"/>
<path fill-rule="evenodd" clip-rule="evenodd" d="M63.2117 50.2849C61.4563 48.9391 59.9351 45.4504 57.8835 45.604C59.5547 47.0375 60.1984 51.4624 63.2117 50.2849Z" fill="#ADC69D"/>
<path fill-rule="evenodd" clip-rule="evenodd" d="M66.6784 50.5298C65.9104 48.3649 63.336 46.2402 61.7086 46.1817C62.8021 47.6335 64.4513 48.4929 64.9523 50.5773C65.5265 50.5627 66.1043 50.5444 66.6784 50.5298Z" fill="#ADC69D"/>
<path fill-rule="evenodd" clip-rule="evenodd" d="M2.10789 42.0858C3.87054 41.7604 4.76649 44.2398 5.60758 43.7095C4.88351 43.5377 5.11394 41.4898 5.88921 41.6287C8.13457 41.8701 8.54775 43.6364 10.7529 42.1736C11.6342 42.4369 12.8191 44.2251 13.5578 43.4718C12.8264 43.1866 13.6127 41.5373 14.5415 41.7092C15.613 42.1151 16.3956 42.8355 17.361 43.3621C17.0319 42.0456 18.0558 41.9944 18.6848 41.5885C21.8042 42.5247 25.1137 41.7823 27.0921 45.143C26.5436 44.0862 26.6204 42.7477 28.0612 42.6892C29.3228 42.66 29.641 43.6254 30.5187 43.9984C30.8149 43.384 31.1257 42.7807 32.2155 42.9123C33.3857 43.2195 33.7623 44.3605 35.035 44.5543C36.4392 42.8099 38.1617 44.7152 39.5477 45.1138C39.4233 43.9838 39.9097 43.4389 40.8715 43.3438C41.9905 43.5815 42.422 44.5506 43.3508 45.0004C43.8884 44.7298 43.2156 43.3109 44.3419 43.5852C46.43 43.6145 47.081 45.1942 48.5584 45.8744C48.3097 44.419 49.4397 44.2471 50.2186 43.7571C52.0471 45.8488 55.2542 44.2507 56.8486 45.6294C55.7479 45.1321 56.0002 43.0988 57.4703 43.1902C59.1232 45.1687 61.0541 42.8575 63.0471 44.7518C62.356 43.5706 62.963 43.0183 64.0235 42.649C66.2725 44.1776 67.7207 46.5729 69.7284 48.3575C71.3374 42.3784 70.5512 38.1144 70.2513 31.0565C46.3642 32.2962 26.262 30.5299 1.43137 31.0419C1.64713 35.8434 -1.26014 42.2504 1.84094 44.8542C1.46428 43.9728 1.1644 42.5649 2.10789 42.0858Z" fill="#ADC69D"/>
<path fill-rule="evenodd" clip-rule="evenodd" d="M28.6205 49.9376C27.4394 47.2681 25.0478 43.9841 22.5574 43.8963C23.7422 44.9386 26.9018 47.151 25.1392 49.0051C22.7987 47.6813 21.4822 43.3771 18.7468 43.6623C19.9756 45.6809 21.4164 47.4874 22.3928 49.7767C25.227 49.8133 26.2216 49.7731 28.6205 49.9376Z" fill="#ADC69D"/>
<path fill-rule="evenodd" clip-rule="evenodd" d="M46.2398 49.4146C44.532 48.4821 42.8791 45.6223 41.2883 45.754C42.1989 47.0485 43.0363 48.4199 43.8299 49.8278C44.543 49.5938 46.1118 50.1898 46.2398 49.4146Z" fill="#ADC69D"/>
<path fill-rule="evenodd" clip-rule="evenodd" d="M68.262 49.2607C67.3477 47.5968 66.3567 46.0134 64.7878 45.0553C65.1791 46.6351 67.6951 48.65 68.262 49.2607Z" fill="#ADC69D"/>
<path fill-rule="evenodd" clip-rule="evenodd" d="M58.7137 50.42C58.2932 48.789 55.0239 46.5948 55.1519 46.7192C56.4318 47.8528 56.3367 50.4529 58.7137 50.42Z" fill="#ADC69D"/>
</svg>
