<svg width="180" height="200" viewBox="0 0 180 200" fill="none" xmlns="http://www.w3.org/2000/svg">
<path fill-rule="evenodd" clip-rule="evenodd" d="M128.865 63.6392C123.849 63.9449 118.127 69.7837 113.762 72.25C96.5267 81.9952 77.3674 86.8803 58.6467 87.9687C47.3118 88.6412 35.6951 86.8561 25.2848 91.1188C23.6615 93.8268 24.6248 97.741 23.7778 100.807C29.3182 118.684 32.4081 132.399 39.0654 146.454C47.1372 163.505 58.149 179.689 72.2966 182.937C80.2595 184.774 92.0809 182.623 102.358 180.492C109.504 179.016 116.129 178.735 123.75 175.166C141.118 167.005 153.178 157.146 155.275 142.236C157.813 124.177 148.864 90.8455 138.586 70.7187C136.862 67.3637 132.624 63.4205 128.865 63.6392ZM56.714 113.053C53.8052 120.16 37.3867 119.407 41.7969 108.386C43.7912 103.405 51.104 99.9174 54.8063 105.116C57.0984 108.337 57.5082 111.112 56.714 113.053ZM113.01 169.477C109.228 171.251 105.928 171.972 103.698 170.366C94.3824 154.266 122.488 158.061 113.01 169.477ZM103.999 111.886C103.951 115.051 102.163 116.933 101.101 120.567C105.061 129.994 111.909 137.261 115.001 145.907C109.759 151.547 96.7496 156.058 89.7521 153.168C87.0823 143.277 88.0001 135.051 85.5808 125.273C76.944 117.391 76.9934 104.298 88.2889 100.923C96.1535 98.5693 104.109 103.652 103.999 111.886ZM130.226 88.0158C127.238 93.3473 117.873 93.5792 115.81 84.6948C118.614 83.5172 117.317 80.4456 119.24 78.857C126.482 75.7609 133.35 82.441 130.226 88.0158Z" fill="#ADC69D"/>
<path fill-rule="evenodd" clip-rule="evenodd" d="M100.621 22.7797C88.9594 14.2509 71.0209 13.1181 55.6975 22.0626C52.9852 23.6358 49.2927 24.7054 47.0831 26.2439C40.1915 31.0797 37.5629 36.2197 34.6148 42.0091C28.1506 54.6991 23.68 71.1709 28.7726 86.7956C33.0922 85.9999 36.7747 86.6093 41.1003 85.8006C39.7358 76.8738 39.6563 68.666 41.6907 61.2263C47.211 40.985 76.2404 23.8956 93.7974 35.9512C103.263 42.4375 112.755 53.661 117.646 66.2454C119.653 64.2014 124.278 63.3739 124.699 60.6092C121.739 48.9835 117.492 40.5974 111.205 33.601C107.63 29.6229 103.777 25.0922 100.621 22.7797Z" fill="#ADC69D"/>
<path fill-rule="evenodd" clip-rule="evenodd" d="M120.508 80.9304C119.58 82.7272 119.734 85.0277 119.194 87.0038C126.954 95.5949 133.726 76.944 120.508 80.9304Z" fill="#ADC69D"/>
<path fill-rule="evenodd" clip-rule="evenodd" d="M99.15 120.781C99.0938 121.999 97.1803 122.344 97.7287 123.834C99.4556 122.253 98.9999 125.39 100.466 124.356C99.4129 123.085 100.82 121.101 99.15 120.781Z" fill="#ADC69D"/>
<path fill-rule="evenodd" clip-rule="evenodd" d="M105.542 161.563C104.068 163.362 104.561 166.059 105.77 169.093C115.01 170.798 114.425 157.745 105.542 161.563Z" fill="#ADC69D"/>
<path fill-rule="evenodd" clip-rule="evenodd" d="M102.175 145.55C102.179 147.529 101.174 149.043 100.531 150.724C101.349 150.117 103.667 150.198 103.492 149.124C101.631 148.956 103.812 145.618 102.175 145.55Z" fill="#ADC69D"/>
<path fill-rule="evenodd" clip-rule="evenodd" d="M45.935 115.498C53.0424 118.073 58.2075 107.236 50.8543 104.037C44.5592 105.49 41.8995 110.502 45.935 115.498Z" fill="#ADC69D"/>
<path fill-rule="evenodd" clip-rule="evenodd" d="M96.229 104.593C95.948 105.041 99.4332 104.998 97.6637 107.104C98.7881 106.556 99.6444 106.563 99.9473 107.794C99.4048 110.142 97.3338 111.78 96.6761 114.062C98.8181 119.019 91.3932 124.389 92.4649 128.817C94.7093 124.908 95.2976 120.235 99.947 117.433C99.2739 115.882 101.011 115.656 101.358 114.368C102.543 110.017 99.3993 102.776 96.229 104.593Z" fill="#ADC69D"/>
<path fill-rule="evenodd" clip-rule="evenodd" d="M109.89 141.694C110.362 142.772 108.789 146.041 109.543 144.866C110.431 144.534 109.657 143.439 110.999 143.321C110.674 142.673 110.55 141.607 109.89 141.694Z" fill="#ADC69D"/>
<path fill-rule="evenodd" clip-rule="evenodd" d="M105.354 145.899C105.357 143.282 110.864 139.746 107.521 138.002C107.183 140.57 104.197 143.881 105.354 145.899Z" fill="#ADC69D"/>
<path fill-rule="evenodd" clip-rule="evenodd" d="M96.2002 147.245C98.092 142.554 100.498 138.092 102.864 133.623C103.086 134.212 103.793 133.742 104.086 134.187C103.175 138.362 99.6055 145.191 99.8233 147.431C102.495 143.719 103.668 139.308 107.305 136.047C105.277 134.243 104.905 130.417 103.049 130C100.446 135.356 96.6519 142.128 96.2002 147.245Z" fill="#ADC69D"/>
<path fill-rule="evenodd" clip-rule="evenodd" d="M96.367 138.044C98.117 134.28 100.862 130.971 101.896 126.869C99.3486 128.349 96.5243 136.692 96.367 138.044Z" fill="#ADC69D"/>
<path fill-rule="evenodd" clip-rule="evenodd" d="M82.6814 114.656C84.9511 111.254 85.6111 107.096 88.3777 103.935C89.8895 104.307 89.0183 105.412 90.098 105.836C90.2095 104.651 91.2978 103.918 91.508 102.782C84.2427 102.359 82.5565 110.686 82.6814 114.656Z" fill="#ADC69D"/>
<path fill-rule="evenodd" clip-rule="evenodd" d="M97.1437 148.422C97.2826 149.966 95.3109 150.547 95.4527 152.084C96.1904 151.812 96.9376 151.537 97.68 151.264C96.6223 150.112 98.3681 148.422 97.1437 148.422Z" fill="#ADC69D"/>
<path d="M137.009 76.0378C136.845 76.0378 136.684 75.9955 136.54 75.9114L136.224 75.7282C136.184 75.7394 136.142 75.7475 136.1 75.7531C135.132 75.8964 134.459 74.453 134.385 74.2891C134.368 74.2524 134.354 74.2144 134.343 74.1751C134.266 73.9197 134.073 73.2849 134.361 72.7921L134.068 72.2794C133.989 72.1398 133.947 71.9835 133.945 71.8265C133.89 71.6763 133.873 71.5125 133.899 71.3511C133.883 71.3038 133.864 71.2533 133.847 71.2047C133.773 71.1493 133.707 71.0826 133.651 71.0053C133.078 70.2154 133.055 69.461 133.04 68.9103C133.03 68.6037 133.022 68.4087 132.958 68.2605L132.562 67.8019C132.397 67.6119 132.323 67.3727 132.336 67.1379C132.181 66.9254 132.049 66.6457 131.967 66.1996C131.815 65.0334 131.409 63.932 130.979 62.7657C130.682 61.9596 130.377 61.1316 130.156 60.2769C130.046 60.133 129.977 59.9548 129.967 59.7604C129.965 59.7156 129.962 59.6651 129.961 59.6109C129.92 58.854 129.61 58.335 129.255 57.7388C128.848 57.0554 128.387 56.281 128.337 55.1534C128.334 55.0749 128.34 54.9971 128.355 54.9223C128.351 54.8787 128.349 54.8338 128.35 54.7896C128.213 54.5392 128.111 54.2557 128.012 53.9859C127.949 53.8121 127.889 53.6408 127.826 53.515C127.743 53.348 127.713 53.1661 127.733 52.991C127.456 52.487 127.268 51.8809 127.085 51.2872C127.027 51.099 126.971 50.9152 126.913 50.7439C126.823 50.4792 126.859 50.1926 127 49.9608C127.009 49.9247 127.017 49.8848 127.025 49.8418C126.988 49.8238 126.952 49.8032 126.918 49.7802C126.691 49.6288 126.543 49.3858 126.509 49.1161C126.502 49.0556 126.488 48.9809 126.474 48.8999C126.417 48.5753 126.341 48.1492 126.447 47.7754C126.447 47.7081 126.45 47.6446 126.453 47.5835C126.405 47.4041 126.385 47.2265 126.392 47.0446C126.397 46.935 126.42 46.8297 126.46 46.7325C126.408 46.4553 126.285 46.0996 126.196 45.841C126.135 45.6635 126.078 45.4977 126.037 45.3551C125.905 44.9003 126.134 44.42 126.569 44.2343C126.581 44.1265 126.597 44.0138 126.621 43.8948C126.624 43.8773 126.628 43.8593 126.633 43.8425C126.563 43.678 126.54 43.4942 126.572 43.3123C126.609 43.1055 126.713 42.9211 126.863 42.7846C126.894 42.7005 126.923 42.5784 126.937 42.4818C126.771 42.0825 126.761 41.7854 126.893 41.2297C126.919 41.1206 126.964 41.0197 127.023 40.9306C127.023 40.7605 127.053 40.5674 127.142 40.3388C127.165 40.2759 127.192 40.2142 127.225 40.1525C127.242 40.122 127.26 40.0927 127.279 40.0653C127.274 40.0055 127.262 39.9438 127.245 39.8535C127.227 39.7563 127.206 39.6441 127.185 39.504C127.137 39.1887 127.254 38.8779 127.483 38.671C127.518 38.491 127.56 38.306 127.613 38.1315C127.674 37.9521 127.74 37.7789 127.822 37.6201C127.846 37.2101 128.078 36.541 128.958 35.4788C129.005 35.4215 129.058 35.3717 129.114 35.3287C129.564 34.5394 130.235 33.9525 130.844 33.4205C130.994 33.2884 131.144 33.1576 131.288 33.0255C131.413 32.9096 131.564 32.8336 131.725 32.7994C131.816 32.4667 131.991 32.0144 132.486 31.6574C132.645 31.5428 132.83 31.4849 133.016 31.4811C133.163 31.3889 133.299 31.3098 133.423 31.2375L133.64 31.1098C133.678 31.0874 133.717 31.0675 133.757 31.0494L133.979 30.9535C134.271 30.8239 134.603 30.6781 135.031 30.546C135.178 30.5012 135.332 30.4931 135.48 30.5199C135.563 30.4787 135.646 30.4383 135.724 30.4003L135.978 30.275C136.214 30.1554 136.489 30.1411 136.736 30.2358C136.734 30.2358 136.745 30.2358 136.766 30.2358C136.814 30.2358 136.922 30.2314 137.128 30.1953C137.163 30.1891 137.199 30.1853 137.234 30.1828C137.386 30.1741 137.548 30.1467 137.72 30.1199C137.945 30.0844 138.182 30.0483 138.427 30.029C139.104 29.9679 139.983 29.9835 140.763 30.2738C140.987 30.1486 141.261 30.1174 141.518 30.2046L141.723 30.2725C141.965 30.3517 142.219 30.4358 142.442 30.5317C142.464 30.5404 142.484 30.5498 142.504 30.5604C142.668 30.6451 143.103 30.87 143.353 31.3042C143.358 31.3055 143.361 31.3073 143.366 31.3092C143.669 31.2058 144.018 31.2643 144.276 31.4874C144.447 31.635 144.633 31.787 144.825 31.9446C145.281 32.3191 145.798 32.7427 146.244 33.2093C146.917 33.9039 147.359 34.54 147.559 35.1001L147.718 35.2814C148.575 36.2507 149.384 37.1665 149.908 38.7078C149.953 38.8417 149.967 38.9813 149.951 39.1177C150.002 39.3875 150.043 39.6853 150.061 39.9444C150.065 40.2952 150.02 40.5718 149.944 40.7898C149.999 40.9263 150.059 41.0614 150.12 41.2004C150.41 41.8607 150.74 42.6089 150.687 43.7428C150.683 43.8319 150.666 43.9178 150.638 43.9988C150.642 44.0101 150.645 44.0206 150.649 44.0325C150.669 44.0941 150.684 44.1434 150.693 44.1751C150.718 44.2667 150.728 44.3627 150.724 44.4574C150.719 44.5714 150.691 44.6878 150.645 44.7994C150.67 44.8803 150.693 44.9744 150.704 45.0803C150.734 45.3295 150.661 45.5744 150.513 45.7644C150.501 46.0485 150.513 46.3811 150.526 46.7256L150.534 46.9493C150.534 46.9562 150.534 46.9624 150.535 46.9692C150.663 46.8571 150.821 46.7817 150.991 46.7524C151.131 46.6783 151.423 46.4073 151.602 46.2422C152.055 45.8242 152.486 45.4261 153.015 45.3806C153.05 45.3414 153.084 45.3028 153.116 45.2635C153.119 45.2274 153.124 45.1919 153.131 45.1551C153.284 44.3901 154.502 43.5372 154.514 43.5291C154.65 43.4344 154.805 43.3808 154.961 43.3659C155.128 43.2818 155.317 43.2488 155.503 43.2724C155.515 43.2668 155.526 43.2606 155.538 43.2556C155.609 43.1223 155.713 43.0064 155.844 42.9186C156.167 42.7036 156.28 42.5741 156.435 42.3946C156.622 42.1785 156.855 41.9099 157.357 41.5748C157.486 41.4888 157.632 41.4371 157.782 41.4228C158.033 41.2297 158.429 40.9823 158.943 41.0322C158.995 40.9904 159.051 40.9512 159.113 40.9163C159.337 40.788 159.6 40.7599 159.841 40.8297C160.229 40.6092 160.634 40.3712 160.821 40.1911C161.016 40.0042 161.275 39.9108 161.534 39.9326C161.611 39.8971 161.69 39.8572 161.771 39.8155C161.886 39.7569 161.999 39.6996 162.112 39.6504C162.518 39.4685 162.957 39.2965 163.456 39.3619C163.518 39.3706 163.579 39.3844 163.636 39.4043C163.737 39.3831 163.843 39.3551 163.924 39.3345L164.018 39.3102C164.662 39.1476 165.09 39.2224 165.374 39.4037C165.593 39.3127 165.859 39.2672 166.208 39.3015C166.297 39.3108 166.381 39.3326 166.46 39.3644C166.655 39.3644 166.861 39.3613 167.073 39.3613C167.432 39.3613 167.809 39.3682 168.159 39.3987C168.329 39.4136 168.491 39.4753 168.629 39.5762C168.68 39.608 168.865 39.6591 169 39.6959C169.245 39.765 169.487 39.8105 169.734 39.8572L169.82 39.8734C170.327 39.9855 170.862 40.1332 171.317 40.4036C171.326 40.4036 171.334 40.4036 171.343 40.4036C171.52 40.3724 171.702 40.3911 171.867 40.4603C171.887 40.4571 171.907 40.454 171.928 40.4515C172.177 40.4297 172.424 40.5001 172.616 40.6559C172.686 40.6827 172.77 40.7014 172.849 40.7225C172.986 40.7599 173.131 40.7992 173.272 40.8565C173.566 40.9007 173.829 41.0614 174.086 41.2184C174.244 41.3144 174.364 41.4514 174.44 41.6078C174.742 41.6826 175.132 41.8333 175.518 42.2252C175.575 42.2831 175.624 42.3479 175.664 42.4183L175.706 42.4906C176.018 42.6114 176.271 42.822 176.414 42.9422C176.677 43.0544 176.878 43.2824 176.952 43.5671L176.973 43.6288C177 43.701 177.019 43.7714 177.035 43.8375C177.216 43.9073 177.376 44.0337 177.487 44.2094C177.601 44.3894 177.734 44.5446 177.875 44.709C177.889 44.7252 177.931 44.7744 177.944 44.7925C178.064 44.9539 178.187 45.0965 178.307 45.2373L178.355 45.294C178.762 45.7307 179.034 46.2354 179.161 46.8073C179.285 46.8939 179.388 47.0097 179.459 47.1493C179.738 47.6963 179.751 48.0875 179.759 48.3467C179.77 48.5329 179.775 48.6164 179.853 48.8114C179.906 48.9416 179.928 49.0818 179.918 49.2213C179.903 49.4462 179.833 49.6475 179.718 49.8101C179.728 50.0786 179.687 50.3172 179.655 50.5028L179.612 50.7221C179.601 50.7757 179.586 50.8262 179.579 50.8754C179.6 50.9308 179.616 50.9881 179.626 51.0454C179.702 51.1962 179.738 51.3694 179.722 51.5476C179.754 51.7014 179.779 51.8628 179.774 52.0528C179.912 52.2117 179.996 52.4185 180 52.644C180.004 52.9132 179.908 53.2234 179.728 53.4751C179.883 53.9156 179.805 54.333 179.49 54.8712C179.46 54.9236 179.424 54.9721 179.386 55.0164C179.379 55.0425 179.373 55.0656 179.367 55.0855C179.335 55.2039 179.28 55.3104 179.211 55.4033C179.212 55.4543 179.209 55.5048 179.202 55.554C179.216 55.701 179.196 55.8524 179.138 55.9957L179.062 56.1714C179.026 56.2524 178.986 56.3352 178.958 56.4368L178.951 56.4648C178.869 56.7763 178.64 57.0099 178.357 57.1096C178.207 57.3009 178.117 57.4685 178.058 57.6504C177.934 58.0348 177.583 58.2858 177.198 58.2977C177.191 58.3014 177.185 58.3051 177.177 58.3089C177.142 58.4677 177.074 58.6172 176.976 58.7711C176.959 58.9885 176.867 59.1997 176.702 59.3623C176.512 59.5511 176.372 59.7218 176.238 59.8831C176.126 60.0183 176.012 60.1554 175.881 60.2949C175.839 60.4164 175.774 60.5485 175.679 60.6899C175.535 60.9061 175.313 61.0457 175.07 61.0905C175.007 61.1397 174.942 61.1902 174.878 61.2382C174.766 61.4275 174.589 61.5764 174.369 61.6499C174.296 61.6749 174.225 61.6917 174.157 61.7029C174.091 61.7478 174.082 61.7696 174.03 61.8879C173.882 62.225 173.675 62.6087 173.079 62.9196C172.919 63.0174 172.745 63.0685 172.544 63.1152C172.387 63.3719 172.115 63.5376 171.813 63.5588C171.586 63.5743 171.371 63.7556 171.01 64.0746C170.555 64.4771 169.988 64.9773 169.11 65.1754C169.032 65.1935 168.954 65.2041 168.875 65.1979C168.653 65.3225 168.311 65.4788 167.956 65.4994C167.655 65.6913 167.395 65.7679 167.08 65.8458C166.991 65.8676 166.892 65.8919 166.774 65.9274C166.654 65.9635 166.531 65.9741 166.412 65.961C166.368 65.9878 166.32 66.0158 166.266 66.0464C166.061 66.1598 165.826 66.1884 165.607 66.1411C165.355 66.2925 165.075 66.4195 164.8 66.5435C164.608 66.6307 164.415 66.718 164.24 66.8127C164.099 66.8893 163.934 66.921 163.786 66.9266C163.412 67.0687 163.033 67.1646 162.663 67.2575C162.326 67.3434 162.001 67.4257 161.714 67.5353C161.507 67.8848 161.083 68.0673 160.72 68.225C160.597 68.2779 160.473 68.3271 160.395 68.3738C160.24 68.4941 160.064 68.5533 159.882 68.5551C159.829 68.5869 159.772 68.6174 159.71 68.6461C159.57 68.7682 159.395 68.8473 159.206 68.8698C159.117 68.8797 159.031 68.8822 158.947 68.8772C158.712 69.0834 158.385 69.1607 158.081 69.0741C158.028 69.0753 157.932 69.0841 157.82 69.1059C157.682 69.2585 157.493 69.3669 157.274 69.4018C156.926 69.4572 156.644 69.6099 156.318 69.7868C156.096 69.9064 155.867 70.031 155.604 70.13C155.5 70.1699 155.392 70.1899 155.283 70.1911C155.246 70.2098 155.208 70.2272 155.168 70.2409L154.738 70.3955C154.575 70.4553 154.404 70.4652 154.243 70.4341C154.062 70.6278 153.798 70.7418 153.515 70.7312C153.49 70.7306 153.467 70.7281 153.444 70.7256C153.256 70.7686 153.044 70.8228 152.839 70.8745C152.395 70.9873 152.076 71.0683 151.824 71.0963C151.613 71.1885 151.403 71.2639 151.211 71.3318C151.136 71.358 151.047 71.3897 150.971 71.419C150.891 71.5361 150.784 71.6371 150.653 71.71C150.34 71.8838 150.007 71.9162 149.739 71.9417C149.697 71.9461 149.654 71.9486 149.612 71.9529C149.432 72.1629 149.162 72.3012 148.876 72.2781C148.794 72.2756 148.65 72.2719 148.492 72.2351C148.338 72.3896 148.134 72.4874 147.912 72.508C147.776 72.5192 147.647 72.5024 147.524 72.4606C147.472 72.48 147.416 72.5012 147.37 72.5192C147.241 72.5684 147.1 72.6226 146.95 72.6687C146.897 72.7323 146.835 72.7933 146.767 72.8544C146.753 72.8662 146.741 72.8762 146.728 72.8868C146.774 72.9441 145.448 73.6886 144.852 73.6481C144.839 73.6543 144.826 73.6605 144.813 73.6661C144.675 73.7322 144.523 73.7602 144.384 73.7571C144.123 73.9172 143.701 74.167 143.097 74.2293C143.019 74.2368 142.943 74.2355 142.87 74.2249C142.809 74.233 142.748 74.2355 142.687 74.2312C142.51 74.3159 142.299 74.3676 141.981 74.3732C141.97 74.3732 141.959 74.3726 141.948 74.3726C141.791 74.4723 141.618 74.519 141.426 74.5171L137.32 75.9793C137.221 76.0204 137.114 76.0378 137.009 76.0378Z" fill="#D80600"/>
<path d="M136.984 74.0087L137.103 74.0772L141.162 72.6325C141.177 72.6269 141.192 72.6219 141.206 72.6182C141.221 72.612 141.236 72.6057 141.252 72.6007L141.818 72.3995C141.965 72.3478 142.119 72.3341 142.27 72.3565C142.361 72.3304 142.462 72.3123 142.576 72.3067L142.626 72.2749C142.864 72.1248 143.148 72.093 143.403 72.1721C143.412 72.1659 143.422 72.1609 143.432 72.1547C143.572 72.0681 143.774 71.9429 144.023 71.8762C144.131 71.6713 144.313 71.5118 144.536 71.4326L145.012 71.2632C145.18 71.204 145.359 71.1928 145.529 71.2314C145.716 71.0227 145.98 70.9081 146.269 70.9212C146.344 70.9174 146.569 70.8308 146.704 70.7791C146.819 70.7355 146.966 70.6788 147.132 70.6346C147.183 70.5941 147.239 70.5555 147.3 70.5175C147.502 70.3904 147.735 70.3487 147.957 70.3873C148.186 70.2496 148.523 70.0839 148.951 70.0995C149.032 70.1013 149.112 70.1138 149.189 70.1368C149.331 70.11 149.462 70.097 149.564 70.0876C149.582 70.0857 149.6 70.0845 149.618 70.0833C149.921 69.8135 150.342 69.6646 150.589 69.5768C150.807 69.4995 151.031 69.4198 151.202 69.3307C151.364 69.246 151.542 69.2136 151.719 69.2291C151.881 69.1955 152.176 69.1214 152.385 69.0684C152.607 69.0117 152.838 68.9538 153.046 68.9058C153.318 68.6603 153.671 68.5102 153.948 68.3937C154.051 68.3501 154.155 68.3065 154.247 68.2598C154.446 68.1607 154.672 68.1352 154.885 68.1863C154.89 68.1838 154.897 68.1806 154.902 68.1782C155.094 68.0835 155.309 68.061 155.512 68.1047C155.618 68.048 155.731 67.9882 155.851 67.9302C155.902 67.5913 156.135 67.3029 156.463 67.187L156.853 67.0474C157.028 66.9845 157.215 66.977 157.392 67.0206C157.419 67.02 157.446 67.0207 157.473 67.0225C157.64 67.0045 157.806 67.0356 157.954 67.1041C157.996 67.0792 158.041 67.0555 158.09 67.0331C158.109 67.0244 158.129 67.0169 158.148 67.0094C158.435 66.901 158.676 66.8674 158.877 66.8842C158.972 66.7901 159.09 66.7148 159.225 66.6668C159.411 66.6014 159.598 66.5814 159.778 66.6039C159.821 66.5845 159.866 66.564 159.912 66.5441C159.991 66.4008 160.107 66.2762 160.257 66.189C160.9 65.7828 161.594 65.6065 162.207 65.4513C162.634 65.3436 163.037 65.2414 163.362 65.0832C163.476 65.0283 163.597 64.9972 163.719 64.9909C163.822 64.943 163.926 64.8956 164.029 64.8483C164.293 64.7287 164.655 64.5642 164.768 64.4608C164.85 64.3848 164.945 64.3244 165.049 64.2826C165.245 64.2029 165.494 64.1611 165.743 64.1879C165.972 64.0565 166.223 63.9512 166.718 63.8428C166.841 63.816 166.965 63.8148 167.082 63.8347C167.107 63.8135 167.135 63.788 167.168 63.7587C167.316 63.6247 167.497 63.5456 167.685 63.5232C167.944 63.3749 168.187 63.2684 168.402 63.1737L168.549 63.1095C168.781 63.0049 169.042 63.0018 169.273 63.0933C169.441 62.9762 169.602 62.8335 169.775 62.6809C169.954 62.5239 170.148 62.352 170.369 62.1962C170.45 62.0012 170.595 61.8393 170.781 61.7371C171.196 61.5078 171.653 61.4069 171.986 61.3334C172.061 61.3172 172.127 61.3035 172.18 61.2898C172.185 61.2867 172.191 61.2836 172.197 61.2804C172.266 61.2462 172.289 61.2256 172.289 61.2256C172.295 61.2107 172.306 61.1776 172.32 61.1446C172.371 61.0269 172.439 60.8717 172.56 60.7017C172.565 60.4207 172.677 60.0799 173.003 59.6924C173.043 59.6445 173.088 59.6009 173.137 59.5622C173.598 59.1953 174.029 59.1056 174.379 59.1629C174.53 59.0233 174.652 58.8769 174.801 58.6969C174.838 58.6514 174.878 58.6041 174.919 58.5549C174.948 58.3904 175.017 58.2328 175.123 58.1038C175.222 57.9942 175.288 57.9182 175.331 57.8658C175.342 57.5979 175.433 57.3456 175.62 57.0422C175.675 56.9532 175.743 56.8753 175.823 56.8093C175.934 56.7183 176.049 56.6485 176.166 56.5987C176.187 56.5688 176.209 56.5395 176.233 56.5115C176.418 56.2978 176.604 56.1744 176.777 56.1084C176.833 56.0318 176.892 55.9564 176.954 55.8822C176.982 55.843 177.028 55.7851 177.077 55.7228C177.081 55.6673 177.089 55.6119 177.102 55.557C177.031 55.3851 176.996 55.1851 177.002 54.9652C177.008 54.7752 177.071 54.592 177.182 54.4406C177.199 54.3945 177.211 54.3435 177.225 54.293C177.284 54.0812 177.414 53.6164 177.784 53.3486C177.784 53.1816 177.807 52.9922 177.861 52.7723C177.862 52.7685 177.863 52.7648 177.864 52.7611C177.85 52.7 177.839 52.6365 177.83 52.5686C177.814 52.4514 177.821 52.3325 177.849 52.2191C177.694 51.9319 177.684 51.6254 177.677 51.4048C177.674 51.3151 177.672 51.2123 177.658 51.0977C177.636 50.922 177.665 50.7494 177.734 50.5974C177.75 50.4971 177.771 50.4043 177.788 50.3233L177.814 50.1894C177.832 50.0891 177.861 49.9209 177.849 49.8698C177.805 49.7645 177.78 49.6549 177.776 49.5433C177.472 49.3403 177.31 48.9714 177.377 48.6014C177.363 48.5684 177.338 48.5154 177.301 48.4438C177.234 48.3185 177.167 48.1859 177.106 48.0469C176.987 47.8127 176.917 47.5784 176.892 47.333C176.869 47.0919 176.939 46.8595 177.077 46.677C177.041 46.6315 177.003 46.586 176.96 46.5393L176.886 46.4533C176.747 46.2913 176.607 46.125 176.468 45.9406C176.459 45.9313 176.451 45.9225 176.443 45.9126C176.091 45.7668 175.87 45.4609 175.723 45.2572C175.674 45.1899 175.6 45.0871 175.567 45.0578C175.304 44.8946 175.151 44.6217 175.139 44.3158C175.136 44.3134 175.133 44.3115 175.131 44.309C175.058 44.309 174.985 44.2997 174.913 44.2828C174.664 44.2218 174.45 44.061 174.323 43.838L174.118 43.4804C174.054 43.4356 173.989 43.4237 173.839 43.3963L173.751 43.3808C173.402 43.3347 173.036 43.2418 172.542 42.9671C172.338 42.8531 172.19 42.6712 172.116 42.4625C172.043 42.4394 171.968 42.4145 171.894 42.384C171.787 42.3983 171.663 42.4008 171.525 42.3802C171.169 42.5129 170.755 42.4176 170.494 42.1142C170.41 42.0164 170.159 41.8663 169.446 41.7099L169.386 41.6987C169.083 41.6407 168.786 41.5828 168.516 41.5056C168.285 41.442 168.034 41.3735 167.792 41.2508C167.444 41.2314 167.059 41.2339 166.682 41.237C166.456 41.2395 166.241 41.2395 166.046 41.237C166.023 41.2364 166.001 41.2352 165.979 41.2333C165.676 41.4476 165.301 41.5884 164.666 41.513C164.582 41.5024 164.498 41.4806 164.42 41.4476C164.27 41.3853 164.15 41.3112 164.056 41.2308C163.754 41.2968 163.414 41.3411 163.06 41.2819C163.008 41.3031 162.944 41.3299 162.872 41.3629C162.786 41.4009 162.704 41.4426 162.62 41.4856C162.388 41.6027 162.103 41.7485 161.761 41.8382C161.424 42.0849 161.021 42.3148 160.626 42.5385C160.427 42.6518 160.231 42.7627 160.055 42.8705C159.96 42.9584 159.844 43.0431 159.704 43.1241C159.544 43.2163 159.361 43.2593 159.177 43.2468C159.16 43.2487 159.111 43.2568 159.06 43.263C158.894 43.2829 158.657 43.3135 158.407 43.2773C158.347 43.3091 158.284 43.3378 158.215 43.3621C158.161 43.3814 158.105 43.3957 158.048 43.4044C157.976 43.4736 157.918 43.5421 157.85 43.62C157.723 43.767 157.575 43.9371 157.338 44.1377C157.078 44.6685 156.724 44.8579 156.433 44.9376C156.25 45.1581 155.978 45.284 155.699 45.284H155.697C155.692 45.2896 155.687 45.2958 155.683 45.3014C155.413 45.6316 155.077 46.0434 154.774 46.3543C154.685 46.4452 154.582 46.5144 154.472 46.5611C154.31 46.7455 154.129 46.9287 153.927 47.1118C153.724 47.2962 153.448 47.3859 153.176 47.3448C153.076 47.4308 152.962 47.5367 152.874 47.6183C152.514 47.9497 152.146 48.2899 151.732 48.4737C151.595 48.6618 151.433 48.8693 151.249 49.0705C151.141 49.192 151.002 49.3371 150.893 49.4462C150.79 49.5396 150.719 49.5975 150.655 49.6436C150.623 49.6679 150.592 49.6904 150.561 49.7103C150.513 49.957 150.452 50.119 150.322 50.3034C150.323 50.3034 150.279 50.4068 150.186 50.7432C150.16 50.8342 150.121 50.9208 150.07 51.0005C149.905 51.2584 149.466 51.9418 148.716 51.6179C148.464 51.5089 148.281 51.2908 148.2 51.0373C148.066 50.6896 148.121 50.3345 148.18 50.0847C148.19 50.0467 148.201 50.01 148.214 49.9732C148.216 49.9689 148.217 49.9639 148.219 49.9601C148.24 49.6324 148.397 49.2929 148.523 49.0306C148.508 48.9964 148.494 48.9615 148.483 48.9247C148.38 48.5989 148.455 48.2413 148.69 47.9952C148.692 47.6987 148.689 47.3243 148.672 47.0402L148.662 46.7966C148.638 46.1431 148.615 45.5244 148.735 44.9581C148.692 44.76 148.674 44.5059 148.76 44.2149C148.682 43.9053 148.637 43.5882 148.685 43.2817C148.701 43.1789 148.733 43.0811 148.78 42.992C148.711 42.6294 148.573 42.3167 148.414 41.9547C148.284 41.6588 148.136 41.3236 148.019 40.9386C147.944 40.6901 147.976 40.4203 148.107 40.196C148.134 40.1506 148.165 40.107 148.199 40.0671C148.199 40.0528 148.199 40.0372 148.199 40.0203C148.181 39.783 148.119 39.4354 148.069 39.2447C148.051 39.1743 148.041 39.1021 148.039 39.0298C147.637 38.0075 147.049 37.3434 146.322 36.5204L146.025 36.1815C145.924 36.0656 145.853 35.9279 145.818 35.7784C145.781 35.6189 145.546 35.1716 144.901 34.5063C144.529 34.1169 144.08 33.7475 143.644 33.3905C143.605 33.3581 143.566 33.3263 143.527 33.2946C143.325 33.2809 143.111 33.2553 142.922 33.1849C142.829 33.15 142.742 33.1015 142.665 33.0398C142.617 33.0198 142.563 33.0061 142.514 32.9918C142.249 32.9108 141.755 32.76 141.573 32.2324C141.573 32.2293 141.572 32.2262 141.571 32.2237C141.462 32.3034 141.335 32.3601 141.199 32.3875C140.929 32.4411 140.645 32.3719 140.428 32.1962C140.108 31.9371 139.402 31.8218 138.586 31.8916C138.382 31.9072 138.195 31.9377 138.016 31.9657C137.8 32 137.594 32.0305 137.401 32.0455C137.13 32.0897 136.831 32.1221 136.529 32.0885C136.298 32.2012 136.062 32.3165 135.903 32.4249C135.655 32.5937 135.342 32.6336 135.061 32.5333C135.056 32.5314 135.052 32.5302 135.048 32.5283C134.943 32.5719 134.841 32.6174 134.737 32.6629L134.366 32.8535C134.103 33.0068 133.83 33.165 133.522 33.4173C133.513 33.4242 133.504 33.4304 133.496 33.4372C133.425 33.7244 133.315 34.1474 132.935 34.5138C132.724 34.7169 132.43 34.8103 132.149 34.7648C132.126 34.7848 132.103 34.8053 132.08 34.8259C131.418 35.4053 130.793 35.9522 130.568 36.6481C130.477 36.9322 130.257 37.1527 129.98 37.2462C129.91 37.3521 129.847 37.453 129.797 37.5408C129.852 37.7066 129.862 37.8885 129.816 38.0673C129.758 38.2984 129.616 38.4903 129.429 38.6149C129.42 38.6398 129.409 38.6685 129.398 38.7009C129.338 38.9046 129.284 39.2292 129.242 39.4902L129.209 39.6889C129.197 39.7618 129.175 39.8322 129.147 39.8983C129.172 40.163 129.154 40.429 129.068 40.8794C129.056 40.938 129.04 40.9953 129.018 41.0495C128.993 41.1112 128.964 41.1691 128.93 41.224C128.939 41.4433 128.907 41.6981 128.774 42.0382C128.774 42.0395 128.775 42.0407 128.775 42.0419C128.8 42.1186 128.815 42.1977 128.818 42.2781C128.829 42.4768 128.79 43.0549 128.57 43.5608C128.64 43.8306 128.653 44.1233 128.6 44.4018C128.574 44.5395 128.517 44.6678 128.436 44.7775C128.448 44.8878 128.468 44.9974 128.491 45.1164C128.556 45.4671 128.638 45.9051 128.491 46.4315C128.461 46.5387 128.413 46.6371 128.35 46.7243C128.362 46.8577 128.365 46.9897 128.355 47.1205C128.353 47.1648 128.347 47.209 128.337 47.252C128.357 47.2775 128.377 47.305 128.393 47.3336C128.499 47.5056 128.684 47.8071 128.738 48.2176C128.788 48.2618 128.831 48.3011 128.863 48.3329C129.163 48.6201 129.238 49.0711 129.045 49.4399C128.985 49.5558 128.929 49.8536 128.891 50.0505C128.863 50.2031 128.835 50.3489 128.798 50.4847C128.824 50.5669 128.85 50.651 128.876 50.7351C129.026 51.2211 129.304 52.125 129.531 52.3088C129.632 52.391 129.715 52.4926 129.774 52.6078C129.896 52.8452 129.991 53.1872 129.859 53.5759C129.896 53.6731 129.935 53.7709 129.968 53.8432C130.199 53.9946 130.357 54.2457 130.385 54.5353C130.406 54.7708 130.388 54.977 130.331 55.1521C130.338 55.2804 130.318 55.4075 130.274 55.5271C130.38 55.9651 130.603 56.3383 130.867 56.7812C131.222 57.3787 131.652 58.0988 131.794 59.0956C131.818 59.1529 131.836 59.2127 131.849 59.2744C132.037 60.2133 132.378 61.139 132.739 62.119C133.186 63.3307 133.648 64.5848 133.819 65.9111C133.837 66.0027 133.86 66.0488 133.86 66.0488C133.876 66.0668 133.9 66.088 133.924 66.1123C134.008 66.1952 134.098 66.2855 134.194 66.4076C134.343 66.597 134.409 66.8288 134.392 67.0549L134.448 67.1209C134.486 67.1639 134.519 67.2107 134.549 67.2611C134.884 67.8361 134.901 68.4018 134.914 68.8566C134.921 69.0921 134.928 69.2759 134.961 69.4391C135.189 69.5612 135.362 69.7761 135.426 70.0378C135.454 70.1499 135.512 70.2994 135.567 70.4502C135.658 70.6975 135.744 70.9318 135.788 71.1554C135.921 71.3853 135.943 71.6183 135.938 71.774L136.226 72.2793C136.274 72.3653 136.309 72.4575 136.329 72.5534C136.401 72.9029 136.377 73.1764 136.3 73.3901C136.545 73.4561 136.761 73.6218 136.886 73.8642L136.932 73.9526C136.946 73.9701 136.965 73.9888 136.984 74.0087Z" fill="#D80600"/>
</svg>
