<svg width="33" height="91" viewBox="0 0 33 91" fill="none" xmlns="http://www.w3.org/2000/svg">
<path d="M9.57266 0.973942C9.53656 0.940147 9.48861 0.921655 9.43907 0.922826C9.38954 0.923994 9.34252 0.944677 9.30833 0.980383C9.27412 1.01608 9.25548 1.06395 9.25644 1.11348C9.2574 1.16302 9.27794 1.21014 9.31326 1.24475C11.9244 3.80381 14.4475 6.45428 16.8183 9.23059C25.7323 19.5204 32.5839 32.5126 31.8342 46.2979C31.7971 47.1478 31.7117 47.9957 31.5787 48.8358C30.9333 52.8347 29.2273 56.8536 26.0931 59.3838C22.9788 62.015 18.4156 61.937 14.8255 60.075C7.25952 56.138 -1.07724 47.9797 1.83876 39.1007C2.18204 38.1907 2.67151 37.2814 3.38449 37.0234C4.06422 36.7624 4.95711 37.3049 5.64625 37.9504C7.05676 39.2931 8.13619 41.0326 9.145 42.7813C11.0982 46.2946 12.8607 50.1043 14.0106 53.8511C16.412 64.8382 15.1733 76.2623 12.3162 87.1019C12.1816 87.6369 12.0575 88.1924 12.013 88.7639C11.9978 89.0626 11.9733 89.351 12.1047 89.7257C12.1656 89.9012 12.3501 90.1543 12.6255 90.2134C12.8893 90.271 13.0822 90.1995 13.2415 90.1353C14.3806 89.5176 14.9865 88.614 15.6672 87.7335C17.2303 85.5739 18.7946 83.3518 19.7752 80.8014C19.7836 80.779 19.791 80.7577 19.7979 80.7339C19.7931 80.7068 19.8482 80.7092 19.7915 80.4889C19.802 80.4348 19.5684 80.2429 19.4577 80.2863C19.3455 80.3022 19.3201 80.3342 19.3111 80.3363C19.284 80.3531 19.2677 80.3668 19.2531 80.3795C19.2205 80.4088 19.2152 80.4159 19.2004 80.4315C19.1455 80.4919 19.1113 80.5373 19.0779 80.5805C19.0042 80.6771 18.9429 80.7628 18.8772 80.8558C18.749 81.0379 18.6265 81.2187 18.5039 81.4016C18.2588 81.7679 18.021 82.1327 17.7836 82.5009C17.3101 83.2393 16.8436 83.9649 16.389 84.7328C15.6002 86.0978 14.815 87.5221 13.6361 88.4621C12.46 89.5018 10.8006 89.0289 9.69489 87.9578C7.97615 86.1606 5.70048 83.9433 5.07356 81.9911C6.42339 82.031 8.57113 82.6718 10.4276 83.0027C10.4388 83.0037 10.4498 83.0045 10.4606 83.0051C14.1309 83.4314 18.0788 81.8652 20.2191 78.8047C20.2502 78.766 20.2648 78.7166 20.2597 78.6672C20.2545 78.6178 20.23 78.5725 20.1914 78.5412C20.1529 78.5099 20.1035 78.4952 20.0541 78.5003C20.0047 78.5054 19.9593 78.5299 19.9279 78.5683C17.7693 81.5564 14.1124 82.9701 10.4869 82.5505C10.4817 82.5501 10.4755 82.5496 10.4685 82.549C8.59518 82.3034 7.0269 81.3025 4.65578 81.7252C4.49336 82.0305 4.59425 82.2407 4.6405 82.4198C4.69848 82.5952 4.77798 82.7609 4.85821 82.9129C5.0224 83.2209 5.20827 83.5059 5.40123 83.7853C5.78664 84.3399 6.20251 84.8669 6.62804 85.3836C7.48797 86.4154 8.35433 87.4032 9.32963 88.3665C9.94801 88.9167 10.6527 89.4113 11.5271 89.5833C12.402 89.7673 13.3273 89.441 13.9869 88.922C15.323 87.8607 16.1075 86.404 16.9163 85.0348C17.3535 84.3064 17.8339 83.5671 18.3064 82.8401C18.5446 82.4755 18.7831 82.1142 19.0271 81.7542C19.149 81.5745 19.2707 81.3973 19.395 81.223C19.4583 81.1344 19.5177 81.0524 19.5822 80.969C19.6098 80.9334 19.6439 80.8907 19.668 80.8648C19.6724 80.86 19.6781 80.8549 19.6731 80.8594C19.6698 80.8622 19.6635 80.8682 19.6449 80.8798C19.638 80.8806 19.6242 80.9058 19.5192 80.9213C19.4157 80.9634 19.1879 80.7772 19.1997 80.7273C19.1502 80.5203 19.1936 80.5705 19.1842 80.5584C19.1845 80.5574 19.1825 80.5639 19.1784 80.5744C18.2281 83.0089 16.6829 85.1923 15.116 87.3299C14.4896 88.1592 13.7633 89.0787 12.9677 89.4906C12.8772 89.5311 12.7952 89.536 12.7923 89.5309C12.7976 89.5301 12.7932 89.5452 12.7617 89.4709C12.7053 89.3226 12.7002 89.0643 12.72 88.8169C12.76 88.3257 12.8787 87.7923 13.0109 87.2807C15.9367 76.4165 17.2531 64.8203 14.8565 53.6782C13.6413 49.6515 11.9204 45.9578 9.931 42.3359C8.89947 40.5438 7.82806 38.7709 6.27186 37.2747C5.51063 36.5918 4.42365 35.7205 3.07827 36.1464C1.80556 36.6655 1.36787 37.7859 0.962139 38.7712C-2.15018 48.6062 6.59914 56.8337 14.3946 60.9614C18.1486 62.9452 23.3032 63.0684 26.7129 60.1639C30.1336 57.3923 31.8852 53.168 32.5664 48.9923C32.7054 48.1144 32.7941 47.2289 32.8319 46.3409C33.5842 32.205 26.4175 19.0043 17.271 8.83684C14.8353 6.08751 12.2479 3.47908 9.57266 0.973942Z" fill="white"/>
</svg>
