<svg width="18" height="16" viewBox="0 0 18 16" fill="none" xmlns="http://www.w3.org/2000/svg">
<path d="M14.4116 0.561279C14.471 0.566354 14.5256 0.58952 14.5698 0.623779C14.6676 0.602255 14.8013 0.589615 14.9683 0.647217C14.9929 0.655834 15.0168 0.667847 15.0386 0.682373L15.0611 0.697021C15.1682 0.687383 15.2713 0.712018 15.3296 0.726318C15.4215 0.721115 15.5127 0.75828 15.5747 0.829834L15.5894 0.844482C15.6072 0.861586 15.6233 0.879421 15.6372 0.89624C15.6991 0.890666 15.7629 0.904492 15.8198 0.939209C15.8783 0.974793 15.9393 0.999914 16.0034 1.0271C16.0097 1.02982 16.0293 1.0384 16.0357 1.04175C16.0931 1.07115 16.1491 1.09442 16.2036 1.11792L16.2261 1.12769C16.4056 1.19555 16.5559 1.30239 16.6743 1.44897C16.7223 1.45634 16.7687 1.4755 16.8091 1.50562C16.9676 1.62364 17.0276 1.73474 17.0669 1.80835C17.0966 1.86026 17.1103 1.88352 17.1607 1.92847C17.1943 1.95855 17.2208 1.99617 17.2378 2.03784C17.2655 2.10478 17.2742 2.17279 17.2642 2.23608C17.3056 2.31201 17.3279 2.38699 17.3452 2.44507L17.3638 2.5144C17.368 2.53152 17.3716 2.548 17.3765 2.56323C17.3904 2.57616 17.4035 2.59017 17.4146 2.60522C17.458 2.63786 17.4924 2.68339 17.5132 2.73706C17.5443 2.77688 17.5754 2.8193 17.6011 2.87476C17.6636 2.90086 17.7173 2.94899 17.7505 3.01343C17.7901 3.09036 17.8064 3.19355 17.7905 3.29175C17.8984 3.39658 17.9355 3.52891 17.9214 3.72925C17.9201 3.74856 17.9164 3.76774 17.9116 3.78589C17.9134 3.79435 17.9153 3.80184 17.9165 3.80835C17.9241 3.8471 17.9234 3.88588 17.9165 3.92261C17.9241 3.93702 17.931 3.95154 17.9361 3.96655C17.9609 4.00691 17.9764 4.05371 17.98 4.10327L17.9839 4.16479C17.985 4.19332 17.9853 4.22329 17.9917 4.25659L17.9937 4.26538C18.0146 4.36691 17.9819 4.4677 17.9146 4.53687C17.8986 4.61328 17.8958 4.6744 17.9048 4.73511C17.9239 4.86367 17.8588 4.98623 17.7495 5.04468C17.7481 5.04674 17.7472 5.04937 17.7456 5.05151C17.758 5.10228 17.7597 5.15543 17.7534 5.21362C17.7795 5.27861 17.7824 5.35239 17.7583 5.42261C17.7305 5.50422 17.7142 5.5738 17.6987 5.6394C17.6857 5.69442 17.6726 5.75038 17.6548 5.80933C17.6599 5.85039 17.6599 5.89763 17.6528 5.9519C17.642 6.03493 17.5984 6.10738 17.5347 6.15503C17.5235 6.17807 17.5122 6.2015 17.5005 6.22437C17.4954 6.29477 17.4652 6.36328 17.4126 6.41577C17.3951 6.43337 17.377 6.44869 17.3589 6.46167C17.3465 6.48387 17.3464 6.49174 17.3482 6.53296C17.3537 6.65127 17.3486 6.79182 17.2212 6.96655C17.1891 7.01753 17.1465 7.05724 17.0952 7.09937C17.0866 7.19565 17.0316 7.28246 16.9478 7.33179C16.8848 7.36857 16.8482 7.45195 16.7896 7.59546C16.7159 7.77642 16.6238 8.00174 16.3989 8.18433C16.3789 8.20075 16.3574 8.21575 16.3335 8.22534C16.2875 8.29284 16.2111 8.38657 16.1118 8.44312C16.0526 8.54138 15.9885 8.6012 15.9087 8.6687C15.8864 8.68752 15.8612 8.70826 15.8325 8.73511C15.803 8.76268 15.7688 8.78349 15.7329 8.79663C15.724 8.81068 15.7139 8.82598 15.7027 8.84253C15.6597 8.90448 15.5957 8.94602 15.5259 8.96362C15.4747 9.04335 15.4117 9.12005 15.3501 9.19507C15.3072 9.24761 15.2638 9.30106 15.2271 9.35327C15.1972 9.39538 15.1546 9.4282 15.1128 9.45093C15.0251 9.54534 14.9297 9.62727 14.8364 9.70679C14.7515 9.77974 14.6693 9.84994 14.6021 9.92261C14.5922 10.0529 14.4958 10.1661 14.4136 10.2634C14.3859 10.2961 14.3572 10.3277 14.3413 10.3523C14.3138 10.4091 14.2712 10.4518 14.2193 10.4783C14.2085 10.495 14.196 10.5119 14.1821 10.5291C14.1591 10.5843 14.1201 10.6323 14.0689 10.6658C14.0444 10.6814 14.0196 10.6943 13.9946 10.7048C13.9563 10.7978 13.8732 10.867 13.773 10.8855C13.758 10.8934 13.7318 10.9093 13.7027 10.9314C13.6847 10.9951 13.6455 11.0542 13.5874 11.0955C13.4952 11.161 13.4355 11.245 13.3667 11.3425C13.3198 11.4087 13.271 11.4777 13.2095 11.5437C13.185 11.5701 13.1566 11.5913 13.1255 11.6072C13.1174 11.6179 13.1096 11.6288 13.1001 11.6384L12.9976 11.7439C12.959 11.7845 12.9107 11.812 12.8599 11.8259C12.8355 11.9075 12.7758 11.978 12.6929 12.0154C12.6858 12.0187 12.6784 12.0216 12.6714 12.0242C12.6231 12.0635 12.5698 12.1099 12.5181 12.1541C12.4063 12.2499 12.3259 12.319 12.2573 12.363C12.2098 12.4197 12.1594 12.4713 12.1138 12.5183C12.096 12.5365 12.0749 12.5586 12.0571 12.5779C12.0508 12.623 12.0336 12.6671 12.0064 12.7068C11.941 12.8016 11.8495 12.8584 11.7759 12.9041C11.7643 12.9113 11.7521 12.9183 11.7407 12.9255C11.7188 13.0118 11.6605 13.0906 11.5747 13.1248C11.5506 13.1358 11.5092 13.1557 11.4585 13.1677C11.4363 13.2341 11.3907 13.2912 11.3296 13.3289C11.2923 13.3513 11.2527 13.3654 11.2114 13.3708C11.1991 13.3839 11.1858 13.3982 11.1753 13.4099C11.1453 13.4424 11.1124 13.4778 11.0757 13.5125C11.0695 13.5383 11.0604 13.5651 11.0493 13.5925C11.0473 13.5978 11.0447 13.6023 11.0425 13.6072C11.0634 13.6178 10.7875 14.022 10.6099 14.0955C10.6073 14.0989 10.6039 14.1019 10.6011 14.1052C10.5707 14.1439 10.5313 14.1741 10.4907 14.1931C10.4385 14.2765 10.3523 14.4091 10.187 14.5134C10.1657 14.5267 10.1431 14.5373 10.1206 14.5447C10.1043 14.5556 10.0869 14.5646 10.0689 14.572C10.0301 14.6216 9.97611 14.6676 9.88527 14.7146C9.88222 14.7161 9.87856 14.717 9.8755 14.7185C9.84429 14.7697 9.80102 14.8079 9.74562 14.8347L8.77003 15.8435C8.74733 15.8695 8.71838 15.89 8.688 15.905C8.64098 15.9283 8.58812 15.939 8.53468 15.9353L8.4175 15.9275C8.40743 15.9365 8.39666 15.9452 8.38527 15.9529C8.1264 16.1322 7.72595 15.8118 7.68117 15.7751C7.67121 15.767 7.66158 15.7584 7.65285 15.7488C7.59407 15.6861 7.44782 15.5297 7.46046 15.3464L7.30324 15.241C7.26051 15.212 7.22562 15.1727 7.20265 15.1277C7.16521 15.0923 7.1371 15.0471 7.1216 14.9968C7.11016 14.9855 7.09744 14.9732 7.08546 14.9617C7.05623 14.9563 7.02765 14.9466 7.0005 14.9324C6.72252 14.7864 6.60807 14.5724 6.52492 14.4158C6.47855 14.3289 6.44807 14.2737 6.40871 14.24L6.22902 14.1638C6.15447 14.1325 6.09865 14.0742 6.06886 14.0046C5.99394 13.9654 5.9151 13.9038 5.82765 13.7869C5.61737 13.472 5.34289 13.2123 5.05226 12.9373C4.8514 12.7472 4.64537 12.5516 4.45949 12.3367C4.40739 12.3109 4.3622 12.2691 4.33156 12.2146C4.32443 12.202 4.31604 12.1872 4.30812 12.1716C4.18796 11.9595 4.02396 11.8544 3.83644 11.7332C3.62148 11.5941 3.37807 11.436 3.20265 11.1179C3.19057 11.0958 3.18148 11.0723 3.17531 11.0486C3.16788 11.0367 3.1609 11.0242 3.1548 11.0115C3.07966 10.9587 3.00885 10.8917 2.94191 10.8279C2.89891 10.787 2.85783 10.7458 2.82179 10.7185C2.77393 10.6823 2.73853 10.6341 2.71925 10.5808C2.56734 10.4751 2.42717 10.3265 2.28957 10.1814C2.24598 10.1354 2.20264 10.0908 2.16164 10.0496C2.09803 9.98608 2.06734 9.89812 2.07472 9.81128C2.07208 9.79964 2.06875 9.78671 2.06496 9.77319C2.05192 9.77322 2.03892 9.77199 2.02589 9.77026C1.93893 9.75899 1.86108 9.71044 1.813 9.63745C1.80222 9.6211 1.78767 9.60113 1.77199 9.57983C1.7091 9.4944 1.6261 9.38236 1.60304 9.25952C1.59343 9.24011 1.5853 9.22103 1.57765 9.20288C1.53807 9.1581 1.50673 9.10989 1.48293 9.0564C1.46856 9.02423 1.46092 8.99042 1.45851 8.95679C1.40381 8.88428 1.31705 8.79893 1.25441 8.73706C1.2115 8.69463 1.17138 8.65511 1.13918 8.61987C1.03621 8.50765 1.03356 8.33623 1.13234 8.22046C1.1202 8.18781 1.10929 8.15264 1.09914 8.11499C1.09758 8.10964 1.09636 8.10375 1.09523 8.09839C1.05162 8.06092 1.01813 8.01095 1.00148 7.95386C0.982537 7.88893 0.986441 7.82034 1.01027 7.75952C1.00703 7.73093 0.998404 7.69165 0.988785 7.66187C0.883662 7.57058 0.838629 7.48623 0.797379 7.30737C0.789353 7.27218 0.78717 7.23606 0.791519 7.2019C0.767291 7.1529 0.748671 7.09291 0.741714 7.0144C0.739206 6.99313 0.738085 6.97139 0.738785 6.94897C0.739097 6.93785 0.740058 6.92644 0.741714 6.91577C0.731751 6.89929 0.719375 6.88271 0.701675 6.85913C0.682648 6.83377 0.660111 6.80464 0.634293 6.76733C0.575526 6.68326 0.564696 6.57641 0.601089 6.48413C0.585667 6.42727 0.571822 6.36794 0.562027 6.3103C0.55401 6.24981 0.54848 6.19006 0.549332 6.13257C0.498005 6.01069 0.468805 5.78423 0.570816 5.35229C0.576286 5.32912 0.585064 5.30727 0.59523 5.28687C0.612288 4.99495 0.721234 4.72941 0.820816 4.48901C0.845393 4.4295 0.870474 4.3708 0.893082 4.31226C0.912657 4.26093 0.945352 4.21717 0.986832 4.18433C0.965728 4.07526 0.95157 3.9196 1.04347 3.74585C1.07267 3.69045 1.11768 3.64745 1.17043 3.61987C1.19967 3.57227 1.22817 3.52944 1.25343 3.49097L1.29836 3.42358C1.30585 3.4119 1.31378 3.40029 1.32277 3.3894L1.37355 3.32983C1.43943 3.25072 1.51425 3.16134 1.61867 3.06226C1.65468 3.02831 1.69822 3.00335 1.74464 2.98999C1.76276 2.96632 1.78024 2.94273 1.79738 2.92065L1.85304 2.84839C1.90383 2.78032 1.98118 2.73734 2.06593 2.72925C2.06593 2.72925 2.06905 2.72717 2.07472 2.72437C2.08838 2.7176 2.1192 2.70068 2.17336 2.66089C2.18271 2.65402 2.19277 2.64812 2.20265 2.64233C2.24504 2.6182 2.28778 2.5867 2.33351 2.55444C2.39345 2.51202 2.45693 2.46809 2.52492 2.42749C2.71157 2.31316 2.96763 2.19236 3.2339 2.16479C3.28072 2.09663 3.35521 2.04846 3.44191 2.03687L3.51027 2.0271C3.59131 2.0154 3.67715 2.00305 3.75539 1.99878C3.7626 1.99829 3.76956 1.99866 3.77687 1.99878C3.83625 1.99982 3.99414 2.00205 4.12843 2.09155C4.12972 2.09135 4.13097 2.09162 4.13234 2.09155C4.20503 2.01844 4.31406 1.98518 4.42043 2.01245C4.49072 2.03065 4.56624 2.04811 4.64406 2.06616C4.82899 2.10901 5.03884 2.15736 5.2339 2.22827C5.52727 2.33257 5.74658 2.45267 5.88429 2.58569L5.95558 2.61597C6.34122 2.77328 6.7055 2.92181 7.07668 3.29175C7.10893 3.3239 7.13315 3.36238 7.14796 3.40405C7.20134 3.47442 7.25521 3.55462 7.29738 3.62671C7.34844 3.72715 7.37583 3.8129 7.38527 3.88647C7.42058 3.91801 7.45718 3.94886 7.49464 3.98022C7.67266 4.12921 7.87436 4.29813 8.02101 4.63257C8.03247 4.65888 8.03981 4.68636 8.04347 4.71362C8.04587 4.7163 8.04864 4.7187 8.05128 4.72144C8.06577 4.73631 8.07743 4.74867 8.08449 4.75659C8.10476 4.77945 8.12202 4.8058 8.13429 4.83374C8.14928 4.86722 8.15706 4.90539 8.15968 4.94409C8.17825 4.96398 8.19877 4.98752 8.2173 5.01636C8.2613 5.08406 8.27492 5.16499 8.25929 5.24097C8.29646 5.32461 8.34809 5.41876 8.40089 5.51636L8.43507 5.57983C8.43623 5.58172 8.43684 5.58381 8.438 5.58569C8.45899 5.53506 8.49377 5.4905 8.53859 5.45776C8.56824 5.41647 8.6141 5.29658 8.64211 5.22339C8.713 5.03825 8.78064 4.86187 8.92628 4.77319C8.93092 4.7568 8.93524 4.74032 8.93898 4.72437C8.9346 4.71368 8.93148 4.70263 8.92824 4.69116C8.86316 4.44854 9.09297 4.0282 9.09523 4.02417C9.12106 3.97754 9.15802 3.94031 9.2007 3.91382C9.23678 3.8658 9.2863 3.82914 9.34328 3.80933C9.34564 3.8062 9.34848 3.80262 9.35109 3.79956C9.35253 3.75095 9.36593 3.70199 9.39113 3.65796C9.45364 3.54985 9.46771 3.4965 9.48683 3.42261C9.50987 3.33355 9.53929 3.22282 9.63625 3.05444C9.66115 3.01133 9.69566 2.97549 9.73683 2.94995C9.78168 2.85836 9.86072 2.73068 10.0161 2.67163C10.025 2.65232 10.0356 2.63278 10.0484 2.61401C10.0946 2.54503 10.1671 2.49844 10.2466 2.48413C10.327 2.36519 10.4098 2.23846 10.438 2.15991C10.4676 2.07841 10.5292 2.01479 10.6069 1.98413C10.6237 1.96315 10.6404 1.94021 10.6577 1.91675C10.6828 1.88334 10.7075 1.85035 10.7329 1.82007C10.824 1.70964 10.9263 1.59709 11.0796 1.54468C11.0987 1.53836 11.1178 1.53353 11.1372 1.53101C11.1631 1.51057 11.19 1.48698 11.2105 1.46948L11.2339 1.44995C11.3965 1.31101 11.5313 1.27124 11.6392 1.28296C11.6893 1.2255 11.7595 1.17438 11.8648 1.13452C11.8918 1.12449 11.9194 1.1181 11.9468 1.11597C12.0029 1.08819 12.0617 1.05824 12.1226 1.02808C12.2263 0.976723 12.3365 0.924756 12.4419 0.883545C12.4931 0.863636 12.549 0.858484 12.603 0.86792C12.6226 0.869671 12.6831 0.858011 12.7271 0.849365C12.8076 0.834258 12.8837 0.812503 12.9614 0.790771L12.9888 0.782959C13.1511 0.742888 13.3268 0.709377 13.4966 0.722412C13.4991 0.721166 13.5017 0.719841 13.5044 0.718506C13.5508 0.684415 13.6062 0.66354 13.6636 0.659912C13.6687 0.65627 13.6735 0.651919 13.6792 0.648193C13.7478 0.606391 13.8301 0.591606 13.9077 0.609131C13.9316 0.606851 13.9584 0.600529 13.9839 0.595459C14.029 0.586576 14.0769 0.577462 14.1255 0.573975C14.2167 0.544765 14.3153 0.552663 14.4116 0.561279Z" fill="white"/>
</svg>
