<svg width="25" height="22" viewBox="0 0 25 22" fill="none" xmlns="http://www.w3.org/2000/svg">
<path d="M19.3641 0.97522C19.4461 0.981843 19.5207 1.01159 19.5818 1.05627C19.7171 1.02806 19.9031 1.0119 20.1346 1.08752C20.1686 1.09878 20.2013 1.11448 20.2313 1.13342L20.2615 1.15295C20.4099 1.14026 20.5529 1.17234 20.6336 1.19104C20.7605 1.18433 20.8858 1.23239 20.9715 1.32581L20.992 1.34534C21.0167 1.36766 21.0382 1.39077 21.0574 1.41272C21.1433 1.4053 21.2324 1.42286 21.3113 1.46838C21.3923 1.51496 21.4764 1.54803 21.5652 1.58362C21.5739 1.58716 21.6003 1.59778 21.6092 1.60217C21.6888 1.64067 21.7661 1.67201 21.8416 1.70276L21.8719 1.71448C22.1204 1.80316 22.3291 1.94269 22.493 2.1344C22.5591 2.14405 22.6227 2.16936 22.6785 2.20862C22.8974 2.36264 22.9806 2.50697 23.035 2.60315C23.0762 2.67127 23.095 2.7025 23.1649 2.76135C23.2113 2.80062 23.2478 2.84959 23.2713 2.90393C23.3096 2.99134 23.3212 3.08006 23.3074 3.16272C23.3647 3.26196 23.3957 3.36025 23.4197 3.43616L23.4461 3.526C23.452 3.54841 23.456 3.57051 23.4627 3.59045C23.4821 3.60738 23.5002 3.6264 23.5154 3.64612C23.5753 3.6887 23.6235 3.74709 23.6522 3.81702C23.6952 3.86908 23.7377 3.92514 23.7733 3.99768C23.8597 4.03177 23.9343 4.09411 23.9803 4.17834C24.0352 4.27898 24.0571 4.41413 24.035 4.5426C24.184 4.67951 24.236 4.85135 24.2166 5.11292C24.2148 5.13827 24.2096 5.16331 24.2029 5.18713C24.2054 5.19828 24.2081 5.20885 24.2098 5.21741C24.2201 5.26791 24.2192 5.31798 24.2098 5.36584C24.2204 5.38487 24.2292 5.40461 24.2361 5.42444C24.2707 5.4773 24.2927 5.53821 24.2977 5.60315L24.3026 5.68323C24.3041 5.72041 24.3045 5.75899 24.3133 5.80237L24.3162 5.81506C24.345 5.94751 24.2998 6.07832 24.2068 6.16858C24.1847 6.26869 24.1816 6.34885 24.1942 6.42834C24.2205 6.59631 24.1295 6.75635 23.9783 6.83264C23.9764 6.83526 23.9747 6.83773 23.9725 6.84045C23.9897 6.90689 23.9928 6.97621 23.9842 7.05237C24.0204 7.13747 24.0245 7.23479 23.991 7.32678C23.9527 7.43308 23.9303 7.52352 23.909 7.60901C23.891 7.6809 23.8731 7.75464 23.8484 7.83167C23.8555 7.88528 23.8553 7.94738 23.8455 8.01819C23.8305 8.12652 23.7694 8.22064 23.6815 8.28284C23.6659 8.31316 23.6499 8.34455 23.6336 8.37463C23.6264 8.46667 23.5853 8.55611 23.5125 8.62463C23.4882 8.64765 23.4633 8.66724 23.4383 8.6842C23.4212 8.71307 23.4221 8.72307 23.4246 8.77698C23.4323 8.93153 23.4248 9.11516 23.2488 9.34338C23.2043 9.41009 23.145 9.46208 23.074 9.51721C23.0621 9.6432 22.9862 9.75653 22.8699 9.82092C22.7828 9.869 22.7323 9.97797 22.6512 10.1656C22.5493 10.4022 22.4222 10.6967 22.1111 10.9352C22.0834 10.9566 22.0543 10.9744 22.0213 10.9869C21.9577 11.0751 21.8521 11.1981 21.7147 11.2721C21.6328 11.4004 21.5437 11.4779 21.4334 11.566C21.4025 11.5907 21.3678 11.6186 21.3279 11.6539C21.2869 11.6901 21.24 11.7168 21.1902 11.734C21.1779 11.7523 21.1638 11.772 21.1483 11.7936C21.0889 11.8746 21.0007 11.9298 20.9041 11.9528C20.8334 12.0568 20.7469 12.1566 20.6619 12.2545C20.6027 12.3231 20.5428 12.3924 20.492 12.4606C20.4507 12.5159 20.3909 12.5587 20.3328 12.5885C20.2117 12.7118 20.0799 12.8187 19.951 12.9225C19.8335 13.0178 19.7197 13.1098 19.6268 13.2047C19.6133 13.3751 19.4798 13.5228 19.366 13.65C19.3275 13.6929 19.2883 13.7351 19.2664 13.7672C19.2283 13.8415 19.1694 13.8967 19.0975 13.9313C19.0827 13.9531 19.0658 13.9753 19.0467 13.9977C19.0149 14.0698 18.9613 14.1327 18.8904 14.1764C18.8566 14.1969 18.8224 14.2134 18.7879 14.2272C18.7349 14.3487 18.6199 14.4393 18.4813 14.4635C18.4606 14.4738 18.424 14.495 18.3836 14.524C18.3588 14.6071 18.3046 14.683 18.2244 14.7369C18.0967 14.8227 18.014 14.9335 17.9188 15.0612C17.854 15.1475 17.7869 15.2367 17.702 15.3229C17.6682 15.3573 17.6295 15.3852 17.5867 15.4059C17.5755 15.4199 17.5638 15.4343 17.5506 15.4469L17.409 15.5846C17.3558 15.6376 17.2897 15.6737 17.2195 15.692C17.1857 15.7988 17.102 15.8913 16.9871 15.9401C16.9776 15.9442 16.9682 15.9475 16.9588 15.9508C16.8921 16.0021 16.8183 16.0621 16.7469 16.1198C16.5921 16.2451 16.4804 16.3356 16.3856 16.3932C16.3198 16.4672 16.2504 16.5349 16.1873 16.5963C16.1627 16.6201 16.1327 16.6492 16.1082 16.6744C16.0995 16.7333 16.0766 16.7916 16.0389 16.8434C15.9485 16.9671 15.8222 17.0416 15.7205 17.1012C15.7046 17.1107 15.6874 17.1192 15.6717 17.1285C15.6413 17.2413 15.5608 17.3446 15.4422 17.3893C15.4089 17.4037 15.3512 17.4283 15.2811 17.444C15.2504 17.5308 15.188 17.6066 15.1033 17.6559C15.0517 17.6853 14.9964 17.7024 14.9393 17.7096C14.9223 17.7266 14.904 17.7451 14.8895 17.7604C14.8479 17.8029 14.8026 17.8497 14.7518 17.8951C14.7432 17.929 14.7299 17.9638 14.7147 17.9996C14.7118 18.0065 14.709 18.0127 14.7059 18.0192C14.7356 18.0322 14.354 18.5607 14.1082 18.6569C14.1045 18.6614 14.1005 18.6661 14.0965 18.6705C14.0545 18.7211 13.9993 18.7599 13.9432 18.7848C13.871 18.8937 13.7518 19.0665 13.5233 19.2028C13.4937 19.2201 13.4626 19.2342 13.4315 19.2438C13.4087 19.2582 13.3844 19.2702 13.3592 19.2799C13.3056 19.3447 13.2317 19.4041 13.1063 19.4655C13.102 19.4674 13.0968 19.4693 13.0926 19.4713C13.0494 19.5382 12.9895 19.5887 12.9129 19.6237L11.5643 20.941C11.5329 20.975 11.493 21.0015 11.451 21.0211C11.386 21.0515 11.3129 21.066 11.2391 21.0612L11.077 21.0504C11.0631 21.0621 11.0487 21.0737 11.033 21.0836C10.6751 21.3183 10.1213 20.8991 10.0594 20.8512C10.0455 20.8405 10.0325 20.8287 10.0203 20.816C9.93897 20.7341 9.73723 20.531 9.7547 20.2916L9.53595 20.153C9.47693 20.1151 9.42899 20.0642 9.39728 20.0055C9.34559 19.9593 9.30638 19.9002 9.28497 19.8346C9.26937 19.82 9.25248 19.8045 9.23615 19.7897C9.19562 19.7826 9.1556 19.7693 9.11798 19.7506C8.73341 19.5598 8.57573 19.2795 8.46075 19.0748C8.39652 18.9611 8.35424 18.8894 8.29962 18.8453L8.0506 18.7467C7.94772 18.7058 7.87108 18.6294 7.8299 18.5387C7.72631 18.4875 7.61779 18.4063 7.49689 18.2535C7.20617 17.8422 6.82639 17.5025 6.42462 17.1432C6.14704 16.8949 5.86217 16.6397 5.60529 16.359C5.53319 16.3253 5.46992 16.2711 5.42755 16.1998C5.41772 16.1834 5.40723 16.1644 5.3963 16.1442C5.23015 15.8666 5.00336 15.7284 4.74396 15.5699C4.44681 15.3883 4.10947 15.1828 3.867 14.7672C3.8503 14.7382 3.83746 14.7074 3.82892 14.6764C3.81863 14.6608 3.80904 14.6443 3.8006 14.6276C3.69675 14.5586 3.60014 14.4706 3.50763 14.3873C3.44805 14.3338 3.39054 14.2804 3.34064 14.2448C3.27441 14.1974 3.22567 14.1347 3.19904 14.0651C2.98897 13.9268 2.79458 13.7331 2.60431 13.5436C2.54404 13.4835 2.48523 13.4246 2.42853 13.3707C2.34047 13.2877 2.29802 13.1728 2.30841 13.0592C2.30476 13.044 2.29998 13.0271 2.29474 13.0094C2.27658 13.0094 2.2582 13.0088 2.24005 13.0065C2.11985 12.9917 2.01253 12.928 1.94611 12.8326C1.9312 12.8113 1.91116 12.7853 1.88947 12.7574C1.8025 12.6458 1.6879 12.4991 1.65607 12.3385C1.64284 12.3132 1.63144 12.2889 1.62091 12.2653C1.56617 12.2068 1.52298 12.1437 1.49005 12.0739C1.47013 12.0317 1.45916 11.9871 1.45587 11.943C1.38024 11.8483 1.26122 11.7367 1.17462 11.6559C1.11521 11.6004 1.05904 11.5487 1.01447 11.5026C0.872308 11.3558 0.868799 11.1322 1.00568 10.9811C0.988874 10.9384 0.973829 10.8926 0.959778 10.8434C0.957621 10.8364 0.955478 10.8289 0.953918 10.8219C0.893602 10.7729 0.848019 10.7071 0.825012 10.6324C0.798956 10.5477 0.803837 10.4588 0.836731 10.3795C0.832279 10.3421 0.819793 10.2906 0.806458 10.2516C0.661048 10.1322 0.598871 10.0218 0.541809 9.78772C0.530747 9.74179 0.527991 9.69558 0.533997 9.651C0.500455 9.58696 0.474294 9.50853 0.464661 9.40588C0.46118 9.37799 0.459766 9.34935 0.460754 9.31995C0.461186 9.30542 0.463348 9.29092 0.465637 9.27698C0.451847 9.25538 0.434494 9.23461 0.409973 9.20374C0.383571 9.17047 0.353086 9.13164 0.3172 9.08264C0.235934 8.9728 0.220985 8.83407 0.271301 8.7135C0.24992 8.63905 0.230191 8.56144 0.216614 8.48596C0.205553 8.4071 0.197898 8.32949 0.199036 8.25452C0.128018 8.09536 0.088254 7.79947 0.229309 7.23499C0.236858 7.20461 0.247459 7.17578 0.261536 7.14905C0.285057 6.76758 0.43731 6.42119 0.575012 6.10706C0.608982 6.02932 0.64239 5.95207 0.673645 5.87561C0.700679 5.80863 0.746269 5.75152 0.803528 5.70862C0.774352 5.56612 0.754595 5.36238 0.881653 5.13538C0.922135 5.06268 0.985129 5.00638 1.05841 4.97034C1.09884 4.90816 1.13775 4.85262 1.17267 4.80237L1.23419 4.7135C1.24461 4.69819 1.25686 4.68382 1.26935 4.66956L1.33771 4.59143C1.42889 4.48796 1.53297 4.37145 1.67755 4.24182C1.72734 4.19747 1.78719 4.16553 1.85138 4.14807C1.87654 4.11701 1.90181 4.08621 1.9256 4.05725L2.00177 3.96252C2.07208 3.87358 2.17941 3.81673 2.29669 3.80627C2.29807 3.80563 2.3022 3.8043 2.30841 3.80139C2.32727 3.79257 2.3695 3.7702 2.44415 3.71838C2.45694 3.70951 2.47068 3.70146 2.48419 3.69397C2.54282 3.66245 2.60258 3.62187 2.66583 3.57971C2.74878 3.52423 2.83638 3.46581 2.93048 3.41272C3.18848 3.2634 3.54198 3.10501 3.90997 3.06897C3.97471 2.98001 4.07829 2.91711 4.19806 2.90198L4.29279 2.88928C4.4047 2.87401 4.52262 2.85875 4.63068 2.85315C4.64072 2.85249 4.65079 2.85203 4.66095 2.85217C4.74304 2.85353 4.96162 2.8573 5.14728 2.97424C5.14914 2.97395 5.15115 2.97435 5.15314 2.97424C5.25373 2.87863 5.40439 2.83491 5.55157 2.87073C5.64873 2.8945 5.75261 2.91747 5.86017 2.94104C6.11603 2.99706 6.40673 3.0602 6.67657 3.15295C7.08175 3.28911 7.38366 3.44613 7.57404 3.61975L7.67365 3.65881C8.20671 3.86431 8.71037 4.05848 9.22345 4.54163C9.26802 4.58361 9.30159 4.63369 9.32208 4.68811C9.39594 4.78009 9.47073 4.88485 9.52911 4.97913C9.59988 5.11064 9.63623 5.22368 9.64923 5.31995C9.69805 5.36114 9.74881 5.40104 9.8006 5.44202C10.0468 5.63676 10.3263 5.85727 10.5291 6.29456C10.5449 6.32888 10.5553 6.36446 10.5604 6.40002L10.617 6.45667C10.6449 6.48645 10.6685 6.5209 10.6854 6.55725C10.706 6.6009 10.7179 6.65038 10.7215 6.70081C10.7471 6.72672 10.7751 6.75802 10.8006 6.79553C10.8612 6.88379 10.8806 6.98947 10.8592 7.0885C10.9106 7.19776 10.9805 7.32135 11.0535 7.44885L11.1014 7.53186C11.1028 7.53414 11.1038 7.53642 11.1053 7.5387C11.1343 7.47247 11.1829 7.41448 11.2449 7.3717C11.2859 7.31753 11.3489 7.16152 11.3875 7.06604C11.4856 6.82393 11.5793 6.59292 11.7811 6.47717C11.7875 6.45579 11.7935 6.4345 11.7986 6.4137C11.7926 6.39977 11.7875 6.38567 11.783 6.37073C11.6935 6.0554 12.0071 5.51052 12.0135 5.49963C12.0492 5.43851 12.0999 5.38883 12.159 5.35413C12.2089 5.29135 12.2784 5.24424 12.3572 5.21838C12.3606 5.21418 12.3642 5.2088 12.368 5.20471C12.3701 5.14136 12.3889 5.07851 12.4236 5.02112C12.5101 4.87987 12.5291 4.80998 12.5555 4.7135C12.5873 4.59713 12.6274 4.45212 12.7615 4.23206C12.796 4.17565 12.8442 4.12873 12.9012 4.09534C12.9632 3.97571 13.0722 3.80919 13.2869 3.73206C13.2993 3.70667 13.3141 3.68055 13.3318 3.65588C13.3957 3.56587 13.4954 3.50661 13.6053 3.48792C13.7165 3.33234 13.8309 3.16684 13.8699 3.06409C13.9108 2.95735 13.9958 2.8738 14.1033 2.83362C14.1266 2.80605 14.1506 2.7756 14.1746 2.74475C14.2092 2.70114 14.243 2.65829 14.2781 2.61877C14.4039 2.47458 14.5458 2.32784 14.7576 2.2594C14.7841 2.25113 14.8108 2.2451 14.8377 2.24182C14.8734 2.21518 14.9101 2.18458 14.9383 2.16174L14.9715 2.13538C15.1963 1.95396 15.382 1.90229 15.5311 1.9176C15.6003 1.8426 15.6971 1.77531 15.8426 1.72327C15.8798 1.71021 15.9182 1.70264 15.9559 1.69983C16.0336 1.66344 16.1155 1.62412 16.2 1.58459C16.3434 1.51752 16.4948 1.44995 16.6404 1.39612C16.7112 1.37002 16.7883 1.36231 16.8631 1.37463C16.8895 1.37719 16.9738 1.36257 17.035 1.3512C17.1464 1.33146 17.2517 1.30342 17.3592 1.27502L17.3963 1.26428C17.6206 1.21193 17.8638 1.16822 18.0984 1.18518C18.1019 1.18357 18.1055 1.18201 18.1092 1.1803C18.1733 1.13571 18.2495 1.10893 18.3289 1.10413C18.3362 1.09924 18.3442 1.09448 18.3524 1.08948C18.4472 1.03486 18.5595 1.01482 18.6668 1.03772C18.6998 1.0348 18.7369 1.02582 18.7723 1.01917C18.8345 1.00757 18.9004 0.995417 18.9676 0.990845C19.0938 0.952528 19.2307 0.96395 19.3641 0.97522Z" fill="#ADC69D"/>
</svg>
